%TF.GenerationSoftware,KiCad,Pcbnew,9.0.2*%
%TF.CreationDate,2025-05-29T00:27:20+01:00*%
%TF.ProjectId,led_jewellery,6c65645f-6a65-4776-956c-6c6572792e6b,rev?*%
%TF.SameCoordinates,Original*%
%TF.FileFunction,Profile,NP*%
%FSLAX46Y46*%
G04 Gerber Fmt 4.6, Leading zero omitted, Abs format (unit mm)*
G04 Created by KiCad (PCBNEW 9.0.2) date 2025-05-29 00:27:20*
%MOMM*%
%LPD*%
G01*
G04 APERTURE LIST*
%TA.AperFunction,Profile*%
%ADD10C,0.050000*%
%TD*%
G04 APERTURE END LIST*
D10*
X127557717Y-79637601D02*
X127557715Y-79637600D01*
X129662397Y-81742288D02*
X129662399Y-81742283D01*
X122886016Y-65573062D02*
X122880439Y-66222715D01*
X126111394Y-65664411D02*
X126095573Y-66222715D01*
X118164809Y-82949230D02*
G75*
G02*
X119010045Y-81136615I6335191J-1850770D01*
G01*
X128163385Y-90289954D02*
G75*
G02*
X126350773Y-91135187I-3663285J5489754D01*
G01*
X119560821Y-81393448D02*
G75*
G02*
X121884645Y-79400000I4939179J-3406552D01*
G01*
X118164809Y-82949230D02*
X118715593Y-83206065D01*
X129662397Y-81742288D02*
G75*
G02*
X127906549Y-89739167I-5162397J-3057712D01*
G01*
X126093938Y-90584405D02*
G75*
G02*
X121452743Y-89968579I-1593938J5784405D01*
G01*
X126093938Y-90584405D02*
X126350773Y-91135186D01*
X127906549Y-89739166D02*
X128163385Y-90289954D01*
X119010046Y-81136616D02*
X119560821Y-81393448D01*
X126095573Y-66222715D02*
G75*
G02*
X127100554Y-77400000I-1595573J-5777285D01*
G01*
X127557717Y-79637601D02*
G75*
G02*
X129662400Y-81742284I1184924J-919759D01*
G01*
X127115338Y-79400000D02*
G75*
G02*
X127557712Y-79637604I-2615138J-5399500D01*
G01*
X120952656Y-90468665D02*
G75*
G02*
X118831188Y-88347490I-1065856J1055465D01*
G01*
X120952656Y-90468665D02*
X121452745Y-89968576D01*
X118831189Y-88347491D02*
X119331421Y-87847259D01*
X122500000Y-77400000D02*
X121884661Y-77400000D01*
X127100554Y-77400000D02*
X126500000Y-77400000D01*
X119331421Y-87847259D02*
G75*
G02*
X118715593Y-83206065I5168579J3047259D01*
G01*
X122500000Y-79400000D02*
X121884645Y-79400000D01*
X121884661Y-77400000D02*
G75*
G02*
X122880439Y-66222715I2615339J5400000D01*
G01*
X122886016Y-65573062D02*
G75*
G02*
X126111393Y-65664411I1613984J62D01*
G01*
X127115338Y-79400000D02*
X126500000Y-79400000D01*
%TO.C,mouse-bite-2mm-slot*%
X122500000Y-77400000D02*
G75*
G02*
X122500000Y-79400000I0J-1000000D01*
G01*
X126500000Y-79400000D02*
G75*
G02*
X126500000Y-77400000I0J1000000D01*
G01*
%TD*%
M02*
