%TF.GenerationSoftware,KiCad,Pcbnew,9.0.2*%
%TF.CreationDate,2025-08-01T19:14:33+01:00*%
%TF.ProjectId,led_jewellery,6c65645f-6a65-4776-956c-6c6572792e6b,rev?*%
%TF.SameCoordinates,Original*%
%TF.FileFunction,Copper,L1,Top*%
%TF.FilePolarity,Positive*%
%FSLAX46Y46*%
G04 Gerber Fmt 4.6, Leading zero omitted, Abs format (unit mm)*
G04 Created by KiCad (PCBNEW 9.0.2) date 2025-08-01 19:14:33*
%MOMM*%
%LPD*%
G01*
G04 APERTURE LIST*
G04 Aperture macros list*
%AMRoundRect*
0 Rectangle with rounded corners*
0 $1 Rounding radius*
0 $2 $3 $4 $5 $6 $7 $8 $9 X,Y pos of 4 corners*
0 Add a 4 corners polygon primitive as box body*
4,1,4,$2,$3,$4,$5,$6,$7,$8,$9,$2,$3,0*
0 Add four circle primitives for the rounded corners*
1,1,$1+$1,$2,$3*
1,1,$1+$1,$4,$5*
1,1,$1+$1,$6,$7*
1,1,$1+$1,$8,$9*
0 Add four rect primitives between the rounded corners*
20,1,$1+$1,$2,$3,$4,$5,0*
20,1,$1+$1,$4,$5,$6,$7,0*
20,1,$1+$1,$6,$7,$8,$9,0*
20,1,$1+$1,$8,$9,$2,$3,0*%
%AMRotRect*
0 Rectangle, with rotation*
0 The origin of the aperture is its center*
0 $1 length*
0 $2 width*
0 $3 Rotation angle, in degrees counterclockwise*
0 Add horizontal line*
21,1,$1,$2,0,0,$3*%
G04 Aperture macros list end*
%TA.AperFunction,SMDPad,CuDef*%
%ADD10R,3.760000X1.205000*%
%TD*%
%TA.AperFunction,SMDPad,CuDef*%
%ADD11R,4.190000X1.460000*%
%TD*%
%TA.AperFunction,SMDPad,CuDef*%
%ADD12R,2.790000X5.330000*%
%TD*%
%TA.AperFunction,SMDPad,CuDef*%
%ADD13RotRect,5.500000X1.000000X315.000000*%
%TD*%
%TA.AperFunction,SMDPad,CuDef*%
%ADD14RoundRect,0.250000X0.450000X-0.262500X0.450000X0.262500X-0.450000X0.262500X-0.450000X-0.262500X0*%
%TD*%
%TA.AperFunction,SMDPad,CuDef*%
%ADD15RoundRect,0.250000X-0.450000X0.262500X-0.450000X-0.262500X0.450000X-0.262500X0.450000X0.262500X0*%
%TD*%
%TA.AperFunction,SMDPad,CuDef*%
%ADD16RotRect,5.500000X1.000000X135.000000*%
%TD*%
%TA.AperFunction,ViaPad*%
%ADD17C,2.000000*%
%TD*%
%TA.AperFunction,ViaPad*%
%ADD18C,0.800000*%
%TD*%
%TA.AperFunction,Conductor*%
%ADD19C,0.400000*%
%TD*%
%TA.AperFunction,Conductor*%
%ADD20C,0.200000*%
%TD*%
G04 APERTURE END LIST*
D10*
%TO.P,SW1,1,A*%
%TO.N,/BAT+*%
X118552933Y-89326184D03*
%TO.P,SW1,2,B*%
%TO.N,Net-(SW1-B)*%
X118552933Y-93071184D03*
D11*
%TO.P,SW1,MP*%
%TO.N,N/C*%
X117372933Y-87548684D03*
D12*
X113957933Y-91198684D03*
D11*
X117372933Y-94848684D03*
%TD*%
D13*
%TO.P,D1,1,K*%
%TO.N,/BAT-*%
X115234991Y-76136042D03*
%TO.P,D1,2,A*%
%TO.N,/LED+*%
X119760475Y-80661526D03*
%TD*%
D14*
%TO.P,R1,1*%
%TO.N,Net-(SW1-B)*%
X121497933Y-92111184D03*
%TO.P,R1,2*%
%TO.N,/LED+*%
X121497933Y-90286184D03*
%TD*%
D15*
%TO.P,R1,1*%
%TO.N,Net-(SW1-B)*%
X95700101Y-77487500D03*
%TO.P,R1,2*%
%TO.N,/LED+*%
X95700101Y-79312500D03*
%TD*%
D16*
%TO.P,D1,1,K*%
%TO.N,/BAT-*%
X101963043Y-93462642D03*
%TO.P,D1,2,A*%
%TO.N,/LED+*%
X97437559Y-88937158D03*
%TD*%
D10*
%TO.P,SW1,1,A*%
%TO.N,/BAT+*%
X98645101Y-80272500D03*
%TO.P,SW1,2,B*%
%TO.N,Net-(SW1-B)*%
X98645101Y-76527500D03*
D11*
%TO.P,SW1,MP*%
%TO.N,N/C*%
X99825101Y-82050000D03*
D12*
X103240101Y-78400000D03*
D11*
X99825101Y-74750000D03*
%TD*%
D17*
%TO.N,/LED+*%
X93273101Y-78410755D03*
D18*
%TO.N,/BAT+*%
X117997933Y-90698684D03*
X117997933Y-91698684D03*
X116997933Y-91698684D03*
X116997933Y-90698684D03*
%TO.N,/BAT-*%
X119972607Y-75923910D03*
X115022859Y-80873658D03*
D17*
X113255093Y-74156143D03*
%TO.N,/LED+*%
X123924933Y-91198684D03*
X122110898Y-83011948D03*
X95087136Y-86586736D03*
%TO.N,/BAT-*%
X103942941Y-95442541D03*
D18*
X102175175Y-88725026D03*
X97225427Y-93674774D03*
%TO.N,/BAT+*%
X100200101Y-78900000D03*
X100200101Y-77900000D03*
X99200101Y-77900000D03*
X99200101Y-78900000D03*
%TD*%
D19*
%TO.N,/BAT+*%
X117997933Y-90698684D02*
X116997933Y-90698684D01*
X116997933Y-90698684D02*
X116997933Y-91698684D01*
X118747933Y-89448684D02*
X116997933Y-89448684D01*
X118997933Y-89698684D02*
X118747933Y-89448684D01*
X117997933Y-89698684D02*
X117997933Y-90698684D01*
X118552933Y-89326184D02*
X118370433Y-89326184D01*
X118370433Y-89326184D02*
X117997933Y-89698684D01*
X116997933Y-91698684D02*
X117997933Y-91698684D01*
X116997933Y-89448684D02*
X116997933Y-90698684D01*
X117997933Y-91698684D02*
X117997933Y-90698684D01*
%TO.N,/LED+*%
X123597933Y-91198684D02*
X123924933Y-91198684D01*
%TO.N,Net-(SW1-B)*%
X120537933Y-93071184D02*
X121497933Y-92111184D01*
%TO.N,/LED+*%
X122685433Y-90286184D02*
X123597933Y-91198684D01*
%TO.N,Net-(SW1-B)*%
X118552933Y-93071184D02*
X120537933Y-93071184D01*
D20*
%TO.N,/LED+*%
X118911947Y-79812997D02*
X120679714Y-81580764D01*
D19*
X121497933Y-90286184D02*
X122685433Y-90286184D01*
X95700101Y-79312500D02*
X94512601Y-79312500D01*
D20*
X98286087Y-89785687D02*
X96518320Y-88017920D01*
D19*
%TO.N,Net-(SW1-B)*%
X98645101Y-76527500D02*
X96660101Y-76527500D01*
%TO.N,/LED+*%
X94512601Y-79312500D02*
X93600101Y-78400000D01*
%TO.N,Net-(SW1-B)*%
X96660101Y-76527500D02*
X95700101Y-77487500D01*
%TO.N,/LED+*%
X93600101Y-78400000D02*
X93273101Y-78400000D01*
%TO.N,/BAT+*%
X99200101Y-77900000D02*
X99200101Y-78900000D01*
X100200101Y-80150000D02*
X100200101Y-78900000D01*
X100200101Y-77900000D02*
X99200101Y-77900000D01*
X98827601Y-80272500D02*
X99200101Y-79900000D01*
X98645101Y-80272500D02*
X98827601Y-80272500D01*
X99200101Y-79900000D02*
X99200101Y-78900000D01*
X98200101Y-79900000D02*
X98450101Y-80150000D01*
X98450101Y-80150000D02*
X100200101Y-80150000D01*
X100200101Y-78900000D02*
X100200101Y-77900000D01*
X99200101Y-78900000D02*
X100200101Y-78900000D01*
%TD*%
%TA.AperFunction,Conductor*%
%TO.N,/BAT-*%
G36*
X99901982Y-86704654D02*
G01*
X100282282Y-86737927D01*
X100292997Y-86739338D01*
X100668959Y-86805629D01*
X100679487Y-86807963D01*
X101048266Y-86906777D01*
X101058546Y-86910019D01*
X101417296Y-87040593D01*
X101427283Y-87044731D01*
X101773268Y-87206066D01*
X101782858Y-87211059D01*
X102113460Y-87401932D01*
X102122583Y-87407744D01*
X102435284Y-87626699D01*
X102443867Y-87633284D01*
X102736317Y-87878678D01*
X102744292Y-87885987D01*
X103014213Y-88155908D01*
X103021522Y-88163883D01*
X103266916Y-88456333D01*
X103273501Y-88464916D01*
X103492456Y-88777617D01*
X103498268Y-88786740D01*
X103689141Y-89117342D01*
X103694136Y-89126937D01*
X103855468Y-89472914D01*
X103859608Y-89482908D01*
X103990175Y-89841635D01*
X103993428Y-89851952D01*
X104092233Y-90220696D01*
X104094574Y-90231258D01*
X104160861Y-90607199D01*
X104162273Y-90617923D01*
X104195546Y-90998218D01*
X104196018Y-91009026D01*
X104196018Y-91390773D01*
X104195546Y-91401581D01*
X104162273Y-91781876D01*
X104160861Y-91792600D01*
X104094574Y-92168541D01*
X104092233Y-92179103D01*
X103993428Y-92547847D01*
X103990175Y-92558164D01*
X103859608Y-92916891D01*
X103855468Y-92926885D01*
X103694136Y-93272863D01*
X103689141Y-93282458D01*
X103561104Y-93504224D01*
X103561104Y-93504226D01*
X103495562Y-93617749D01*
X103429118Y-93712641D01*
X102213042Y-93712641D01*
X102213042Y-94928717D01*
X102118149Y-94995162D01*
X102004628Y-95060703D01*
X102004626Y-95060703D01*
X101782858Y-95188741D01*
X101773263Y-95193736D01*
X101427286Y-95355068D01*
X101417292Y-95359208D01*
X101058562Y-95489776D01*
X101048244Y-95493029D01*
X100679505Y-95591831D01*
X100668944Y-95594172D01*
X100293000Y-95660461D01*
X100282276Y-95661873D01*
X99938180Y-95691978D01*
X99901982Y-95695145D01*
X99891176Y-95695617D01*
X99509426Y-95695617D01*
X99498619Y-95695145D01*
X99458576Y-95691641D01*
X99118325Y-95661873D01*
X99107601Y-95660461D01*
X98731657Y-95594172D01*
X98721096Y-95591831D01*
X98352357Y-95493029D01*
X98342039Y-95489776D01*
X97983309Y-95359208D01*
X97973315Y-95355068D01*
X97627337Y-95193736D01*
X97617742Y-95188741D01*
X97287146Y-94997872D01*
X97278022Y-94992060D01*
X96965303Y-94773091D01*
X96956721Y-94766505D01*
X96664290Y-94521126D01*
X96656315Y-94513818D01*
X96386382Y-94243885D01*
X96379074Y-94235910D01*
X96133695Y-93943479D01*
X96127109Y-93934897D01*
X95971484Y-93712641D01*
X100798827Y-93712641D01*
X101713043Y-94626857D01*
X101713044Y-94626856D01*
X101713044Y-93712641D01*
X100798827Y-93712641D01*
X95971484Y-93712641D01*
X95908140Y-93622177D01*
X95902328Y-93613054D01*
X95888233Y-93588641D01*
X95711457Y-93282454D01*
X95706464Y-93272863D01*
X95704944Y-93269604D01*
X95545131Y-92926882D01*
X95540992Y-92916891D01*
X95410418Y-92558144D01*
X95407176Y-92547860D01*
X95308368Y-92179103D01*
X95306028Y-92168543D01*
X95301832Y-92144749D01*
X95239739Y-91792599D01*
X95238327Y-91781874D01*
X95205056Y-91401582D01*
X95204584Y-91390775D01*
X95204584Y-91009024D01*
X95205056Y-90998217D01*
X95238327Y-90617925D01*
X95239739Y-90607200D01*
X95239739Y-90607199D01*
X95306029Y-90231249D01*
X95308369Y-90220695D01*
X95407178Y-89851932D01*
X95410416Y-89841661D01*
X95540996Y-89482896D01*
X95545127Y-89472925D01*
X95706471Y-89126923D01*
X95711451Y-89117355D01*
X95888158Y-88811289D01*
X95938723Y-88763077D01*
X96007330Y-88749853D01*
X96072194Y-88775821D01*
X96083224Y-88785611D01*
X98804221Y-91506609D01*
X98804227Y-91506614D01*
X98859423Y-91547772D01*
X98941785Y-91576046D01*
X98970060Y-91585754D01*
X99057805Y-91585754D01*
X99124844Y-91605439D01*
X99170599Y-91658243D01*
X99180543Y-91727400D01*
X99159804Y-91871651D01*
X99180264Y-92013965D01*
X99180265Y-92013970D01*
X99239991Y-92144749D01*
X99277571Y-92191384D01*
X99277575Y-92191388D01*
X100364981Y-93278795D01*
X100384320Y-93270784D01*
X100384667Y-93269604D01*
X100437471Y-93223849D01*
X100488982Y-93212643D01*
X101713044Y-93212643D01*
X102213042Y-93212643D01*
X103127258Y-93212643D01*
X103127258Y-93212642D01*
X102213042Y-92298426D01*
X102213042Y-93212643D01*
X101713044Y-93212643D01*
X101713044Y-91988581D01*
X101732729Y-91921542D01*
X101768407Y-91890626D01*
X101779196Y-91864580D01*
X100691789Y-90777174D01*
X100691785Y-90777170D01*
X100645150Y-90739590D01*
X100514371Y-90679864D01*
X100514366Y-90679863D01*
X100372053Y-90659403D01*
X100227801Y-90680142D01*
X100158643Y-90670198D01*
X100105839Y-90624443D01*
X100086155Y-90557404D01*
X100086155Y-90469658D01*
X100070692Y-90424619D01*
X100048173Y-90359022D01*
X100007015Y-90303826D01*
X100007010Y-90303820D01*
X97286013Y-87582824D01*
X97252528Y-87521501D01*
X97257512Y-87451809D01*
X97299384Y-87395876D01*
X97311694Y-87387756D01*
X97617755Y-87211051D01*
X97627322Y-87206071D01*
X97973325Y-87044727D01*
X97983297Y-87040596D01*
X98342061Y-86910016D01*
X98352328Y-86906779D01*
X98721119Y-86807962D01*
X98731637Y-86805630D01*
X99107607Y-86739338D01*
X99118319Y-86737927D01*
X99411182Y-86712304D01*
X99498620Y-86704655D01*
X99509427Y-86704183D01*
X99891175Y-86704183D01*
X99901982Y-86704654D01*
G37*
%TD.AperFunction*%
%TD*%
%TA.AperFunction,Conductor*%
%TO.N,/BAT-*%
G36*
X117699415Y-73903539D02*
G01*
X118079708Y-73936810D01*
X118090432Y-73938222D01*
X118466378Y-74004511D01*
X118476936Y-74006851D01*
X118845693Y-74105659D01*
X118855977Y-74108901D01*
X119214728Y-74239476D01*
X119224715Y-74243614D01*
X119570701Y-74404949D01*
X119580287Y-74409940D01*
X119910892Y-74600814D01*
X119920011Y-74606623D01*
X120232730Y-74825592D01*
X120241312Y-74832178D01*
X120533743Y-75077557D01*
X120541718Y-75084865D01*
X120811651Y-75354798D01*
X120818959Y-75362773D01*
X121064338Y-75655204D01*
X121070924Y-75663786D01*
X121289893Y-75976505D01*
X121295705Y-75985629D01*
X121486574Y-76316225D01*
X121491569Y-76325820D01*
X121652901Y-76671798D01*
X121657041Y-76681792D01*
X121787609Y-77040522D01*
X121790862Y-77050840D01*
X121889664Y-77419579D01*
X121892005Y-77430140D01*
X121958294Y-77806084D01*
X121959706Y-77816808D01*
X121992978Y-78197100D01*
X121993450Y-78207908D01*
X121993450Y-78589659D01*
X121992978Y-78600467D01*
X121959706Y-78980759D01*
X121958294Y-78991483D01*
X121892005Y-79367427D01*
X121889664Y-79377988D01*
X121790862Y-79746727D01*
X121787609Y-79757045D01*
X121657041Y-80115775D01*
X121652901Y-80125769D01*
X121491569Y-80471746D01*
X121486574Y-80481341D01*
X121309877Y-80787391D01*
X121259310Y-80835606D01*
X121190703Y-80848830D01*
X121125839Y-80822862D01*
X121114809Y-80813072D01*
X118393812Y-78092074D01*
X118393806Y-78092069D01*
X118338613Y-78050913D01*
X118338611Y-78050912D01*
X118283292Y-78031921D01*
X118227974Y-78012930D01*
X118227973Y-78012930D01*
X118140229Y-78012930D01*
X118073190Y-77993245D01*
X118027435Y-77940441D01*
X118017491Y-77871284D01*
X118038229Y-77727032D01*
X118017769Y-77584718D01*
X118017768Y-77584713D01*
X117958042Y-77453934D01*
X117920462Y-77407299D01*
X117920458Y-77407295D01*
X116833052Y-76319888D01*
X116813713Y-76327899D01*
X116813367Y-76329080D01*
X116760563Y-76374835D01*
X116709052Y-76386041D01*
X115484990Y-76386041D01*
X115484990Y-77610103D01*
X115465305Y-77677142D01*
X115429626Y-77708057D01*
X115418837Y-77734103D01*
X116506244Y-78821509D01*
X116506248Y-78821513D01*
X116552883Y-78859093D01*
X116683662Y-78918819D01*
X116683667Y-78918820D01*
X116825980Y-78939280D01*
X116970232Y-78918541D01*
X117039391Y-78928485D01*
X117092195Y-78974240D01*
X117111879Y-79041279D01*
X117111879Y-79129025D01*
X117149861Y-79239661D01*
X117149862Y-79239664D01*
X117191018Y-79294857D01*
X117191023Y-79294863D01*
X119912020Y-82015859D01*
X119945505Y-82077182D01*
X119940521Y-82146874D01*
X119898649Y-82202807D01*
X119886339Y-82210927D01*
X119580291Y-82387624D01*
X119570696Y-82392619D01*
X119224718Y-82553951D01*
X119214724Y-82558091D01*
X118855997Y-82688658D01*
X118845680Y-82691911D01*
X118476936Y-82790716D01*
X118466374Y-82793057D01*
X118090433Y-82859344D01*
X118079709Y-82860756D01*
X117699415Y-82894029D01*
X117688607Y-82894501D01*
X117306859Y-82894501D01*
X117296051Y-82894029D01*
X116915756Y-82860756D01*
X116905032Y-82859344D01*
X116529091Y-82793057D01*
X116518529Y-82790716D01*
X116149781Y-82691909D01*
X116139473Y-82688659D01*
X116007642Y-82640677D01*
X115780741Y-82558091D01*
X115770747Y-82553951D01*
X115424770Y-82392619D01*
X115415175Y-82387624D01*
X115084573Y-82196751D01*
X115075450Y-82190939D01*
X114762749Y-81971984D01*
X114754166Y-81965399D01*
X114461716Y-81720005D01*
X114453741Y-81712696D01*
X114183820Y-81442775D01*
X114176511Y-81434800D01*
X113931117Y-81142350D01*
X113924532Y-81133767D01*
X113705577Y-80821066D01*
X113699765Y-80811943D01*
X113508892Y-80481341D01*
X113503897Y-80471746D01*
X113342565Y-80125769D01*
X113338425Y-80115775D01*
X113207852Y-79757029D01*
X113204610Y-79746749D01*
X113105796Y-79377970D01*
X113103462Y-79367442D01*
X113037171Y-78991480D01*
X113035760Y-78980759D01*
X113025115Y-78859093D01*
X113002488Y-78600464D01*
X113002016Y-78589657D01*
X113002016Y-78207910D01*
X113002488Y-78197103D01*
X113035760Y-77816808D01*
X113037172Y-77806083D01*
X113051111Y-77727032D01*
X113103463Y-77430120D01*
X113105795Y-77419602D01*
X113204612Y-77050811D01*
X113207849Y-77040544D01*
X113338429Y-76681780D01*
X113342560Y-76671808D01*
X113475815Y-76386041D01*
X114070775Y-76386041D01*
X114984991Y-77300257D01*
X114984992Y-77300256D01*
X114984992Y-76386041D01*
X114070775Y-76386041D01*
X113475815Y-76386041D01*
X113503912Y-76325787D01*
X113508879Y-76316247D01*
X113702472Y-75980935D01*
X113768916Y-75886043D01*
X114984992Y-75886043D01*
X115484990Y-75886043D01*
X116399206Y-75886043D01*
X116399206Y-75886042D01*
X115484990Y-74971826D01*
X115484990Y-75886043D01*
X114984992Y-75886043D01*
X114984992Y-74669966D01*
X115079885Y-74603522D01*
X115415188Y-74409934D01*
X115424756Y-74404954D01*
X115770758Y-74243610D01*
X115780729Y-74239479D01*
X116139494Y-74108899D01*
X116149765Y-74105661D01*
X116518534Y-74006850D01*
X116529082Y-74004512D01*
X116905036Y-73938221D01*
X116915754Y-73936810D01*
X117296051Y-73903539D01*
X117306858Y-73903067D01*
X117688608Y-73903067D01*
X117699415Y-73903539D01*
G37*
%TD.AperFunction*%
%TD*%
M02*
