%TF.GenerationSoftware,KiCad,Pcbnew,9.0.2*%
%TF.CreationDate,2025-08-01T19:14:33+01:00*%
%TF.ProjectId,led_jewellery,6c65645f-6a65-4776-956c-6c6572792e6b,rev?*%
%TF.SameCoordinates,Original*%
%TF.FileFunction,Profile,NP*%
%FSLAX46Y46*%
G04 Gerber Fmt 4.6, Leading zero omitted, Abs format (unit mm)*
G04 Created by KiCad (PCBNEW 9.0.2) date 2025-08-01 19:14:33*
%MOMM*%
%LPD*%
G01*
G04 APERTURE LIST*
%TA.AperFunction,Profile*%
%ADD10C,0.050000*%
%TD*%
G04 APERTURE END LIST*
D10*
X110100001Y-98050000D02*
X107100001Y-98050000D01*
X107100001Y-71550000D02*
X110100001Y-71550000D01*
X110097933Y-80398684D02*
X110097933Y-89198684D01*
X110100001Y-98050000D02*
X110097933Y-93198684D01*
X107100101Y-93200000D02*
X107100001Y-98050000D01*
X107100101Y-80400000D02*
X107100101Y-89200000D01*
X107100001Y-71550000D02*
X107100101Y-76400000D01*
X110097933Y-76398684D02*
X110100001Y-71550000D01*
X123275218Y-92794257D02*
G75*
G02*
X112097934Y-93799238I-5777285J1595574D01*
G01*
X113834349Y-83888738D02*
X114091181Y-83337963D01*
X112097733Y-75783446D02*
X112097733Y-76398784D01*
X122987687Y-74735399D02*
G75*
G02*
X123832919Y-76548011I-5489687J-3663249D01*
G01*
X112097933Y-88583345D02*
G75*
G02*
X123275218Y-89579123I5400000J-2615339D01*
G01*
X112097733Y-80398784D02*
X112097733Y-81014139D01*
X120544992Y-83567363D02*
G75*
G02*
X115903798Y-84183191I-3047259J5168579D01*
G01*
X115646963Y-84733975D02*
X115903798Y-84183191D01*
X123275216Y-89579123D02*
X123717526Y-89579123D01*
X123275218Y-92794255D02*
X123723724Y-92794257D01*
X123166398Y-81946128D02*
G75*
G02*
X121045117Y-84067424I-5668660J3547339D01*
G01*
X123282138Y-76804846D02*
G75*
G02*
X122666309Y-81446039I-5784386J-1593936D01*
G01*
X112097933Y-93799238D02*
X112097933Y-93198684D01*
X112335345Y-75341047D02*
G75*
G02*
X114440016Y-73236385I5162379J-3057730D01*
G01*
X123717527Y-89579123D02*
G75*
G02*
X123924933Y-91198684I-6219299J-1619524D01*
G01*
X122436899Y-74992235D02*
X122987687Y-74735399D01*
X112097933Y-89198684D02*
X112097933Y-88583345D01*
X121045224Y-84067595D02*
X120544992Y-83567363D01*
X123282138Y-76804846D02*
X123832919Y-76548011D01*
X123166398Y-81946128D02*
X122666309Y-81446039D01*
X123924933Y-91198684D02*
G75*
G02*
X123723724Y-92794257I-6427035J5D01*
G01*
X115646963Y-84733975D02*
G75*
G02*
X113834349Y-83888738I1850756J6335151D01*
G01*
X114440021Y-73236387D02*
G75*
G02*
X122436899Y-74992235I3057712J-5162395D01*
G01*
X112097733Y-75783446D02*
G75*
G02*
X112335333Y-75341069I5402268J-2616554D01*
G01*
X114091181Y-83337963D02*
G75*
G02*
X112097733Y-81014139I3406554J4939180D01*
G01*
X103106853Y-86260721D02*
G75*
G02*
X105100301Y-88584545I-3406552J-4939179D01*
G01*
X105100301Y-93815238D02*
G75*
G02*
X104862697Y-94257612I-5399500J2615138D01*
G01*
X102758013Y-96362297D02*
G75*
G02*
X94761134Y-94606449I-3057712J5162397D01*
G01*
X101551071Y-84864709D02*
G75*
G02*
X103363686Y-85709945I-1850770J-6335191D01*
G01*
X93273101Y-78400000D02*
G75*
G02*
X93474310Y-76804427I6427000J0D01*
G01*
X94031636Y-87652556D02*
X94531725Y-88152645D01*
X93915896Y-92793838D02*
X93365115Y-93050673D01*
X96152810Y-85531089D02*
X96653042Y-86031321D01*
X105100101Y-80400000D02*
X105100101Y-81015339D01*
X94761135Y-94606449D02*
X94210347Y-94863285D01*
X93480507Y-80019561D02*
G75*
G02*
X93273098Y-78400000I6219494J1619561D01*
G01*
X104862689Y-94257637D02*
G75*
G02*
X102758018Y-96362300I-5162388J3057737D01*
G01*
X105100101Y-75799446D02*
X105100101Y-76400000D01*
X93915896Y-92793838D02*
G75*
G02*
X94531722Y-88152643I5784405J1593938D01*
G01*
X94031636Y-87652556D02*
G75*
G02*
X96152917Y-85531260I5668665J-3547344D01*
G01*
X93922816Y-76804429D02*
X93474310Y-76804427D01*
X93922818Y-80019561D02*
X93480508Y-80019561D01*
X101551071Y-84864709D02*
X101294236Y-85415493D01*
X96653042Y-86031321D02*
G75*
G02*
X101294236Y-85415493I3047259J-5168579D01*
G01*
X105100301Y-89199900D02*
X105100301Y-88584545D01*
X105100101Y-81015339D02*
G75*
G02*
X93922816Y-80019561I-5400000J2615339D01*
G01*
X94210347Y-94863285D02*
G75*
G02*
X93365114Y-93050673I5489754J3663285D01*
G01*
X105100301Y-93815238D02*
X105100301Y-93199900D01*
X103363685Y-85709946D02*
X103106853Y-86260721D01*
X93922816Y-76804427D02*
G75*
G02*
X105100101Y-75799446I5777285J-1595573D01*
G01*
%TO.C,mouse-bite-2mm-slot*%
X112097933Y-89198684D02*
G75*
G02*
X110097933Y-89198684I-1000000J0D01*
G01*
X110097933Y-93198684D02*
G75*
G02*
X112097933Y-93198684I1000000J0D01*
G01*
X112097933Y-76398684D02*
G75*
G02*
X110097933Y-76398684I-1000000J0D01*
G01*
X110097933Y-80398684D02*
G75*
G02*
X112097933Y-80398684I1000000J0D01*
G01*
X107100101Y-89200000D02*
G75*
G02*
X105100101Y-89200000I-1000000J0D01*
G01*
X105100101Y-93200000D02*
G75*
G02*
X107100101Y-93200000I1000000J0D01*
G01*
X107100101Y-76400000D02*
G75*
G02*
X105100101Y-76400000I-1000000J0D01*
G01*
X105100101Y-80400000D02*
G75*
G02*
X107100101Y-80400000I1000000J0D01*
G01*
%TD*%
M02*
