%TF.GenerationSoftware,KiCad,Pcbnew,9.0.2*%
%TF.CreationDate,2025-08-01T19:14:33+01:00*%
%TF.ProjectId,led_jewellery,6c65645f-6a65-4776-956c-6c6572792e6b,rev?*%
%TF.SameCoordinates,Original*%
%TF.FileFunction,Soldermask,Top*%
%TF.FilePolarity,Negative*%
%FSLAX46Y46*%
G04 Gerber Fmt 4.6, Leading zero omitted, Abs format (unit mm)*
G04 Created by KiCad (PCBNEW 9.0.2) date 2025-08-01 19:14:33*
%MOMM*%
%LPD*%
G01*
G04 APERTURE LIST*
G04 Aperture macros list*
%AMRoundRect*
0 Rectangle with rounded corners*
0 $1 Rounding radius*
0 $2 $3 $4 $5 $6 $7 $8 $9 X,Y pos of 4 corners*
0 Add a 4 corners polygon primitive as box body*
4,1,4,$2,$3,$4,$5,$6,$7,$8,$9,$2,$3,0*
0 Add four circle primitives for the rounded corners*
1,1,$1+$1,$2,$3*
1,1,$1+$1,$4,$5*
1,1,$1+$1,$6,$7*
1,1,$1+$1,$8,$9*
0 Add four rect primitives between the rounded corners*
20,1,$1+$1,$2,$3,$4,$5,0*
20,1,$1+$1,$4,$5,$6,$7,0*
20,1,$1+$1,$6,$7,$8,$9,0*
20,1,$1+$1,$8,$9,$2,$3,0*%
%AMRotRect*
0 Rectangle, with rotation*
0 The origin of the aperture is its center*
0 $1 length*
0 $2 width*
0 $3 Rotation angle, in degrees counterclockwise*
0 Add horizontal line*
21,1,$1,$2,0,0,$3*%
G04 Aperture macros list end*
%ADD10R,3.760000X1.205000*%
%ADD11R,4.190000X1.460000*%
%ADD12R,2.790000X5.330000*%
%ADD13RotRect,5.500000X1.000000X315.000000*%
%ADD14C,0.500000*%
%ADD15RoundRect,0.250000X0.450000X-0.262500X0.450000X0.262500X-0.450000X0.262500X-0.450000X-0.262500X0*%
%ADD16RoundRect,0.250000X-0.450000X0.262500X-0.450000X-0.262500X0.450000X-0.262500X0.450000X0.262500X0*%
%ADD17RotRect,5.500000X1.000000X135.000000*%
%ADD18C,2.000000*%
G04 APERTURE END LIST*
D10*
%TO.C,SW1*%
X118552933Y-89326184D03*
X118552933Y-93071184D03*
D11*
X117372933Y-87548684D03*
D12*
X113957933Y-91198684D03*
D11*
X117372933Y-94848684D03*
%TD*%
D13*
%TO.C,D1*%
X115234991Y-76136042D03*
X119760475Y-80661526D03*
%TD*%
D14*
%TO.C,mouse-bite-2mm-slot*%
X111847933Y-90448684D03*
X110347933Y-90448684D03*
X111847933Y-91198684D03*
X110347933Y-91198684D03*
X111847933Y-91948684D03*
X110347933Y-91948684D03*
%TD*%
D15*
%TO.C,R1*%
X121497933Y-92111184D03*
X121497933Y-90286184D03*
%TD*%
D14*
%TO.C,mouse-bite-2mm-slot*%
X111847933Y-77648684D03*
X110347933Y-77648684D03*
X111847933Y-78398684D03*
X110347933Y-78398684D03*
X111847933Y-79148684D03*
X110347933Y-79148684D03*
%TD*%
%TO.C,mouse-bite-2mm-slot*%
X106850101Y-90450000D03*
X105350101Y-90450000D03*
X106850101Y-91200000D03*
X105350101Y-91200000D03*
X106850101Y-91950000D03*
X105350101Y-91950000D03*
%TD*%
D16*
%TO.C,R1*%
X95700101Y-77487500D03*
X95700101Y-79312500D03*
%TD*%
D14*
%TO.C,mouse-bite-2mm-slot*%
X106850101Y-77650000D03*
X105350101Y-77650000D03*
X106850101Y-78400000D03*
X105350101Y-78400000D03*
X106850101Y-79150000D03*
X105350101Y-79150000D03*
%TD*%
D17*
%TO.C,D1*%
X101963043Y-93462642D03*
X97437559Y-88937158D03*
%TD*%
D10*
%TO.C,SW1*%
X98645101Y-80272500D03*
X98645101Y-76527500D03*
D11*
X99825101Y-82050000D03*
D12*
X103240101Y-78400000D03*
D11*
X99825101Y-74750000D03*
%TD*%
D18*
X93273101Y-78410755D03*
X113255093Y-74156143D03*
X123924933Y-91198684D03*
X122110898Y-83011948D03*
X95087136Y-86586736D03*
X103942941Y-95442541D03*
M02*
