M48
; DRILL file {KiCad 9.0.2} date 2025-08-01T19:14:31+0100
; FORMAT={-:-/ absolute / metric / decimal}
; #@! TF.CreationDate,2025-08-01T19:14:31+01:00
; #@! TF.GenerationSoftware,Kicad,Pcbnew,9.0.2
; #@! TF.FileFunction,NonPlated,1,2,NPTH
FMAT,2
METRIC
; #@! TA.AperFunction,NonPlated,NPTH,ComponentDrill
T1C0.500
%
G90
G05
T1
X105.35Y-77.65
X105.35Y-78.4
X105.35Y-79.15
X105.35Y-90.45
X105.35Y-91.2
X105.35Y-91.95
X106.85Y-77.65
X106.85Y-78.4
X106.85Y-79.15
X106.85Y-90.45
X106.85Y-91.2
X106.85Y-91.95
X110.348Y-77.649
X110.348Y-78.399
X110.348Y-79.149
X110.348Y-90.449
X110.348Y-91.199
X110.348Y-91.949
X111.848Y-77.649
X111.848Y-78.399
X111.848Y-79.149
X111.848Y-90.449
X111.848Y-91.199
X111.848Y-91.949
M30
