M48
; DRILL file {KiCad 9.0.2} date 2025-08-05T00:52:20+0100
; FORMAT={-:-/ absolute / metric / decimal}
; #@! TF.CreationDate,2025-08-05T00:52:20+01:00
; #@! TF.GenerationSoftware,Kicad,Pcbnew,9.0.2
; #@! TF.FileFunction,NonPlated,1,2,NPTH
FMAT,2
METRIC
; #@! TA.AperFunction,NonPlated,NPTH,ComponentDrill
T1C0.500
%
G90
G05
T1
X86.292Y-93.656
X86.84Y-93.171
X87.444Y-92.756
X88.094Y-92.418
X88.78Y-92.161
X92.288Y-92.161
X92.975Y-92.418
X93.292Y-77.656
X93.292Y-109.656
X93.624Y-92.756
X93.84Y-77.17
X93.84Y-109.17
X94.228Y-93.171
X94.444Y-76.755
X94.444Y-108.755
X94.777Y-93.656
X95.094Y-76.417
X95.094Y-108.417
X95.78Y-76.161
X95.78Y-108.161
X99.288Y-76.161
X99.288Y-108.161
X99.975Y-76.417
X99.975Y-108.417
X100.291Y-93.656
X100.624Y-76.755
X100.624Y-108.755
X100.84Y-93.171
X101.228Y-77.17
X101.228Y-109.17
X101.444Y-92.756
X101.777Y-77.656
X101.777Y-109.656
X102.093Y-92.418
X102.78Y-92.161
X106.288Y-92.161
X106.975Y-92.418
X107.291Y-77.656
X107.291Y-109.656
X107.624Y-92.756
X107.84Y-77.17
X107.84Y-109.17
X108.228Y-93.171
X108.444Y-76.755
X108.444Y-108.755
X108.777Y-93.656
X109.093Y-76.417
X109.093Y-108.417
X109.78Y-76.161
X109.78Y-108.161
X113.288Y-76.161
X113.288Y-108.161
X113.975Y-76.417
X113.975Y-108.417
X114.624Y-76.755
X114.624Y-108.755
X115.228Y-77.17
X115.228Y-109.17
X115.777Y-77.656
X115.777Y-109.656
X117.755Y-93.656
X118.304Y-93.171
X118.908Y-92.756
X119.557Y-92.418
X120.244Y-92.161
X123.752Y-92.161
X124.438Y-92.418
X124.755Y-77.656
X124.755Y-109.656
X125.088Y-92.756
X125.304Y-77.17
X125.304Y-109.17
X125.692Y-93.171
X125.908Y-76.755
X125.908Y-108.755
X126.24Y-93.656
X126.557Y-76.417
X126.557Y-108.417
X127.244Y-76.161
X127.244Y-108.161
X130.752Y-76.161
X130.752Y-108.161
X131.438Y-76.417
X131.438Y-108.417
X131.755Y-93.656
X132.088Y-76.755
X132.088Y-108.755
X132.303Y-93.171
X132.692Y-77.17
X132.692Y-109.17
X132.907Y-92.756
X133.24Y-77.656
X133.24Y-109.656
X133.557Y-92.417
X134.243Y-92.161
X137.752Y-92.161
X138.438Y-92.418
X138.755Y-77.656
X138.755Y-109.656
X139.088Y-92.756
X139.303Y-77.17
X139.303Y-109.17
X139.692Y-93.171
X139.907Y-76.755
X139.907Y-108.755
X140.24Y-93.656
X140.557Y-76.417
X140.557Y-108.417
X141.243Y-76.161
X141.243Y-108.161
X144.752Y-76.161
X144.752Y-108.161
X145.438Y-76.417
X145.438Y-108.417
X146.088Y-76.755
X146.088Y-108.755
X146.692Y-77.17
X146.692Y-109.17
X147.24Y-77.656
X147.24Y-109.656
M30
