%TF.GenerationSoftware,KiCad,Pcbnew,9.0.2*%
%TF.CreationDate,2025-08-05T00:52:27+01:00*%
%TF.ProjectId,led_jewellery,6c65645f-6a65-4776-956c-6c6572792e6b,rev?*%
%TF.SameCoordinates,Original*%
%TF.FileFunction,Copper,L1,Top*%
%TF.FilePolarity,Positive*%
%FSLAX46Y46*%
G04 Gerber Fmt 4.6, Leading zero omitted, Abs format (unit mm)*
G04 Created by KiCad (PCBNEW 9.0.2) date 2025-08-05 00:52:27*
%MOMM*%
%LPD*%
G01*
G04 APERTURE LIST*
G04 Aperture macros list*
%AMRoundRect*
0 Rectangle with rounded corners*
0 $1 Rounding radius*
0 $2 $3 $4 $5 $6 $7 $8 $9 X,Y pos of 4 corners*
0 Add a 4 corners polygon primitive as box body*
4,1,4,$2,$3,$4,$5,$6,$7,$8,$9,$2,$3,0*
0 Add four circle primitives for the rounded corners*
1,1,$1+$1,$2,$3*
1,1,$1+$1,$4,$5*
1,1,$1+$1,$6,$7*
1,1,$1+$1,$8,$9*
0 Add four rect primitives between the rounded corners*
20,1,$1+$1,$2,$3,$4,$5,0*
20,1,$1+$1,$4,$5,$6,$7,0*
20,1,$1+$1,$6,$7,$8,$9,0*
20,1,$1+$1,$8,$9,$2,$3,0*%
G04 Aperture macros list end*
%TA.AperFunction,SMDPad,CuDef*%
%ADD10R,1.205000X3.760000*%
%TD*%
%TA.AperFunction,SMDPad,CuDef*%
%ADD11R,1.460000X4.190000*%
%TD*%
%TA.AperFunction,SMDPad,CuDef*%
%ADD12R,5.330000X2.790000*%
%TD*%
%TA.AperFunction,SMDPad,CuDef*%
%ADD13RoundRect,0.250000X-0.262500X-0.450000X0.262500X-0.450000X0.262500X0.450000X-0.262500X0.450000X0*%
%TD*%
%TA.AperFunction,SMDPad,CuDef*%
%ADD14R,1.000000X5.500000*%
%TD*%
%TA.AperFunction,ViaPad*%
%ADD15C,0.800000*%
%TD*%
%TA.AperFunction,ViaPad*%
%ADD16C,2.000000*%
%TD*%
%TA.AperFunction,Conductor*%
%ADD17C,0.400000*%
%TD*%
%TA.AperFunction,Conductor*%
%ADD18C,0.200000*%
%TD*%
G04 APERTURE END LIST*
D10*
%TO.P,SW5,1,A*%
%TO.N,/BAT+*%
X123870254Y-98953803D03*
%TO.P,SW5,2,B*%
%TO.N,Net-(SW1-B)*%
X120125254Y-98953803D03*
D11*
%TO.P,SW5,MP*%
%TO.N,N/C*%
X125647754Y-97773803D03*
D12*
X121997754Y-94358803D03*
D11*
X118347754Y-97773803D03*
%TD*%
D10*
%TO.P,SW6,1,A*%
%TO.N,/BAT+*%
X130870296Y-114953462D03*
%TO.P,SW6,2,B*%
%TO.N,Net-(SW1-B)*%
X127125296Y-114953462D03*
D11*
%TO.P,SW6,MP*%
%TO.N,N/C*%
X132647796Y-113773462D03*
D12*
X128997796Y-110358462D03*
D11*
X125347796Y-113773462D03*
%TD*%
D10*
%TO.P,SW4,1,A*%
%TO.N,/BAT+*%
X130870296Y-82953462D03*
%TO.P,SW4,2,B*%
%TO.N,Net-(SW1-B)*%
X127125296Y-82953462D03*
D11*
%TO.P,SW4,MP*%
%TO.N,N/C*%
X132647796Y-81773462D03*
D12*
X128997796Y-78358462D03*
D11*
X125347796Y-81773462D03*
%TD*%
D10*
%TO.P,SW3,1,A*%
%TO.N,/BAT+*%
X99406732Y-114953491D03*
%TO.P,SW3,2,B*%
%TO.N,Net-(SW1-B)*%
X95661732Y-114953491D03*
D11*
%TO.P,SW3,MP*%
%TO.N,N/C*%
X101184232Y-113773491D03*
D12*
X97534232Y-110358491D03*
D11*
X93884232Y-113773491D03*
%TD*%
D10*
%TO.P,SW2,1,A*%
%TO.N,/BAT+*%
X92406690Y-98953832D03*
%TO.P,SW2,2,B*%
%TO.N,Net-(SW1-B)*%
X88661690Y-98953832D03*
D11*
%TO.P,SW2,MP*%
%TO.N,N/C*%
X94184190Y-97773832D03*
D12*
X90534190Y-94358832D03*
D11*
X86884190Y-97773832D03*
%TD*%
D10*
%TO.P,SW1,1,A*%
%TO.N,/BAT+*%
X99406732Y-82953491D03*
%TO.P,SW1,2,B*%
%TO.N,Net-(SW1-B)*%
X95661732Y-82953491D03*
D11*
%TO.P,SW1,MP*%
%TO.N,N/C*%
X101184232Y-81773491D03*
D12*
X97534232Y-78358491D03*
D11*
X93884232Y-81773491D03*
%TD*%
D13*
%TO.P,R5,1*%
%TO.N,Net-(SW1-B)*%
X121085254Y-101898803D03*
%TO.P,R5,2*%
%TO.N,/LED+*%
X122910254Y-101898803D03*
%TD*%
D14*
%TO.P,D1,2,A*%
%TO.N,/LED+*%
X135997435Y-101098744D03*
%TO.P,D1,1,K*%
%TO.N,/BAT-*%
X135997435Y-94698744D03*
%TD*%
D13*
%TO.P,R1,2*%
%TO.N,/LED+*%
X98446732Y-85898491D03*
%TO.P,R1,1*%
%TO.N,Net-(SW1-B)*%
X96621732Y-85898491D03*
%TD*%
D14*
%TO.P,D1,2,A*%
%TO.N,/LED+*%
X142997477Y-117098403D03*
%TO.P,D1,1,K*%
%TO.N,/BAT-*%
X142997477Y-110698403D03*
%TD*%
%TO.P,D1,2,A*%
%TO.N,/LED+*%
X111533913Y-117098432D03*
%TO.P,D1,1,K*%
%TO.N,/BAT-*%
X111533913Y-110698432D03*
%TD*%
D13*
%TO.P,R2,2*%
%TO.N,/LED+*%
X91446690Y-101898832D03*
%TO.P,R2,1*%
%TO.N,Net-(SW1-B)*%
X89621690Y-101898832D03*
%TD*%
D14*
%TO.P,D1,2,A*%
%TO.N,/LED+*%
X111533913Y-85098432D03*
%TO.P,D1,1,K*%
%TO.N,/BAT-*%
X111533913Y-78698432D03*
%TD*%
D13*
%TO.P,R4,2*%
%TO.N,/LED+*%
X129910296Y-85898462D03*
%TO.P,R4,1*%
%TO.N,Net-(SW1-B)*%
X128085296Y-85898462D03*
%TD*%
%TO.P,R6,2*%
%TO.N,/LED+*%
X129910296Y-117898462D03*
%TO.P,R6,1*%
%TO.N,Net-(SW1-B)*%
X128085296Y-117898462D03*
%TD*%
%TO.P,R3,2*%
%TO.N,/LED+*%
X98446732Y-117898491D03*
%TO.P,R3,1*%
%TO.N,Net-(SW1-B)*%
X96621732Y-117898491D03*
%TD*%
D14*
%TO.P,D1,2,A*%
%TO.N,/LED+*%
X104533871Y-101098773D03*
%TO.P,D1,1,K*%
%TO.N,/BAT-*%
X104533871Y-94698773D03*
%TD*%
%TO.P,D1,2,A*%
%TO.N,/LED+*%
X142997477Y-85098403D03*
%TO.P,D1,1,K*%
%TO.N,/BAT-*%
X142997477Y-78698403D03*
%TD*%
D15*
%TO.N,/BAT-*%
X146497477Y-113898403D03*
%TO.N,/BAT+*%
X128497796Y-82398462D03*
X129497796Y-114398462D03*
X128497796Y-114398462D03*
D16*
%TO.N,/BAT-*%
X142997478Y-75898403D03*
D15*
X115033913Y-81898432D03*
D16*
%TO.N,/LED+*%
X135997436Y-104422744D03*
X121997754Y-104325803D03*
%TO.N,/BAT-*%
X135997436Y-91898744D03*
D15*
X132497435Y-97898744D03*
X139497435Y-97898744D03*
%TO.N,/BAT+*%
X122497754Y-98398803D03*
X122497754Y-97398803D03*
X121497754Y-97398803D03*
X121497754Y-98398803D03*
X129497796Y-82398462D03*
D16*
%TO.N,/BAT-*%
X142997478Y-107898403D03*
D15*
%TO.N,/BAT+*%
X97034232Y-82398491D03*
X128497796Y-113398462D03*
%TO.N,/BAT-*%
X108033913Y-113898432D03*
%TO.N,/BAT+*%
X98034232Y-114398491D03*
X97034232Y-114398491D03*
%TO.N,/BAT-*%
X139497477Y-113898403D03*
%TO.N,/BAT+*%
X97034232Y-113398491D03*
X129497796Y-81398462D03*
X91034190Y-97398832D03*
D16*
%TO.N,/LED+*%
X97534232Y-88325491D03*
D15*
%TO.N,/BAT-*%
X115033913Y-113898432D03*
D16*
%TO.N,/LED+*%
X128997796Y-120325462D03*
%TO.N,/BAT-*%
X104533872Y-91898773D03*
%TO.N,/LED+*%
X142997478Y-88422403D03*
D15*
%TO.N,/BAT-*%
X101033871Y-97898773D03*
D16*
%TO.N,/LED+*%
X111533914Y-120422432D03*
D15*
%TO.N,/BAT-*%
X108033913Y-81898432D03*
D16*
%TO.N,/LED+*%
X90534190Y-104325832D03*
X142997478Y-120422403D03*
D15*
%TO.N,/BAT+*%
X90034190Y-97398832D03*
X98034232Y-113398491D03*
X97034232Y-81398491D03*
D16*
%TO.N,/LED+*%
X104533872Y-104422773D03*
D15*
%TO.N,/BAT+*%
X98034232Y-82398491D03*
D16*
%TO.N,/LED+*%
X97534232Y-120325491D03*
D15*
%TO.N,/BAT+*%
X90034190Y-98398832D03*
D16*
%TO.N,/LED+*%
X111533914Y-88422432D03*
%TO.N,/BAT-*%
X111533914Y-75898432D03*
D15*
X146497477Y-81898403D03*
D16*
X111533914Y-107898432D03*
%TO.N,/LED+*%
X128997796Y-88325462D03*
D15*
%TO.N,/BAT-*%
X139497477Y-81898403D03*
X108033871Y-97898773D03*
%TO.N,/BAT+*%
X129497796Y-113398462D03*
X128497796Y-81398462D03*
X98034232Y-81398491D03*
X91034190Y-98398832D03*
%TD*%
D17*
%TO.N,/BAT+*%
X129497796Y-82398462D02*
X129497796Y-81398462D01*
%TO.N,Net-(SW1-B)*%
X95661732Y-82953491D02*
X95661732Y-84938491D01*
X120125254Y-100938803D02*
X121085254Y-101898803D01*
%TO.N,/BAT+*%
X128497796Y-81398462D02*
X128497796Y-82398462D01*
%TO.N,Net-(SW1-B)*%
X120125254Y-98953803D02*
X120125254Y-100938803D01*
%TO.N,/LED+*%
X122910254Y-103086303D02*
X121997754Y-103998803D01*
X128997796Y-87998462D02*
X128997796Y-88325462D01*
X121997754Y-103998803D02*
X121997754Y-104325803D01*
D18*
X135997436Y-99898744D02*
X135997436Y-102398744D01*
D17*
X122910254Y-101898803D02*
X122910254Y-103086303D01*
%TO.N,/BAT+*%
X123497754Y-98398803D02*
X122497754Y-98398803D01*
X123870254Y-98953803D02*
X123870254Y-98771303D01*
X123747754Y-99148803D02*
X123747754Y-97398803D01*
X123870254Y-98771303D02*
X123497754Y-98398803D01*
X123747754Y-97398803D02*
X122497754Y-97398803D01*
X123497754Y-99398803D02*
X123747754Y-99148803D01*
X121497754Y-97398803D02*
X121497754Y-98398803D01*
X122497754Y-98398803D02*
X122497754Y-97398803D01*
X122497754Y-97398803D02*
X121497754Y-97398803D01*
X121497754Y-98398803D02*
X122497754Y-98398803D01*
%TO.N,/LED+*%
X129910296Y-87085962D02*
X128997796Y-87998462D01*
%TO.N,/BAT+*%
X130870296Y-82770962D02*
X130497796Y-82398462D01*
X92284190Y-97398832D02*
X91034190Y-97398832D01*
X92034190Y-99398832D02*
X92284190Y-99148832D01*
X91034190Y-97398832D02*
X90034190Y-97398832D01*
X90034190Y-98398832D02*
X91034190Y-98398832D01*
%TO.N,Net-(SW1-B)*%
X127125296Y-84938462D02*
X128085296Y-85898462D01*
%TO.N,/BAT+*%
X130497796Y-114398462D02*
X129497796Y-114398462D01*
X98034232Y-82398491D02*
X98034232Y-81398491D01*
X99284232Y-115148491D02*
X99284232Y-113398491D01*
%TO.N,Net-(SW1-B)*%
X127125296Y-116938462D02*
X128085296Y-117898462D01*
%TO.N,/BAT+*%
X128497796Y-114398462D02*
X129497796Y-114398462D01*
X130747796Y-113398462D02*
X129497796Y-113398462D01*
X99284232Y-81398491D02*
X98034232Y-81398491D01*
X99406732Y-114770991D02*
X99034232Y-114398491D01*
D18*
%TO.N,/LED+*%
X111533914Y-83898432D02*
X111533914Y-86398432D01*
D17*
%TO.N,/BAT+*%
X99284232Y-83148491D02*
X99284232Y-81398491D01*
%TO.N,Net-(SW1-B)*%
X88661690Y-98953832D02*
X88661690Y-100938832D01*
%TO.N,/LED+*%
X129910296Y-117898462D02*
X129910296Y-119085962D01*
X91446690Y-101898832D02*
X91446690Y-103086332D01*
%TO.N,/BAT+*%
X129497796Y-114398462D02*
X129497796Y-113398462D01*
X97034232Y-114398491D02*
X98034232Y-114398491D01*
%TO.N,Net-(SW1-B)*%
X127125296Y-82953462D02*
X127125296Y-84938462D01*
%TO.N,/BAT+*%
X130747796Y-83148462D02*
X130747796Y-81398462D01*
X97034232Y-82398491D02*
X98034232Y-82398491D01*
%TO.N,/LED+*%
X97534232Y-87998491D02*
X97534232Y-88325491D01*
%TO.N,/BAT+*%
X128497796Y-82398462D02*
X129497796Y-82398462D01*
%TO.N,/LED+*%
X97534232Y-119998491D02*
X97534232Y-120325491D01*
%TO.N,/BAT+*%
X97034232Y-81398491D02*
X97034232Y-82398491D01*
D18*
%TO.N,/LED+*%
X142997478Y-115898403D02*
X142997478Y-118398403D01*
D17*
X128997796Y-119998462D02*
X128997796Y-120325462D01*
%TO.N,/BAT+*%
X128497796Y-113398462D02*
X128497796Y-114398462D01*
%TO.N,Net-(SW1-B)*%
X88661690Y-100938832D02*
X89621690Y-101898832D01*
%TO.N,/BAT+*%
X130747796Y-81398462D02*
X129497796Y-81398462D01*
%TO.N,/LED+*%
X129910296Y-119085962D02*
X128997796Y-119998462D01*
D18*
X111533914Y-115898432D02*
X111533914Y-118398432D01*
D17*
%TO.N,/BAT+*%
X130497796Y-115398462D02*
X130747796Y-115148462D01*
%TO.N,Net-(SW1-B)*%
X95661732Y-116938491D02*
X96621732Y-117898491D01*
D18*
%TO.N,/LED+*%
X142997478Y-83898403D02*
X142997478Y-86398403D01*
D17*
X90534190Y-103998832D02*
X90534190Y-104325832D01*
X98446732Y-85898491D02*
X98446732Y-87085991D01*
D18*
X104533872Y-99898773D02*
X104533872Y-102398773D01*
D17*
%TO.N,/BAT+*%
X92034190Y-98398832D02*
X91034190Y-98398832D01*
X92406690Y-98953832D02*
X92406690Y-98771332D01*
%TO.N,/LED+*%
X98446732Y-87085991D02*
X97534232Y-87998491D01*
%TO.N,/BAT+*%
X130497796Y-83398462D02*
X130747796Y-83148462D01*
X129497796Y-113398462D02*
X128497796Y-113398462D01*
X129497796Y-81398462D02*
X128497796Y-81398462D01*
X130747796Y-115148462D02*
X130747796Y-113398462D01*
X98034232Y-114398491D02*
X98034232Y-113398491D01*
X130870296Y-114953462D02*
X130870296Y-114770962D01*
X130497796Y-82398462D02*
X129497796Y-82398462D01*
X92284190Y-99148832D02*
X92284190Y-97398832D01*
X92406690Y-98771332D02*
X92034190Y-98398832D01*
X130870296Y-82953462D02*
X130870296Y-82770962D01*
X98034232Y-113398491D02*
X97034232Y-113398491D01*
X97034232Y-113398491D02*
X97034232Y-114398491D01*
%TO.N,/LED+*%
X98446732Y-119085991D02*
X97534232Y-119998491D01*
%TO.N,Net-(SW1-B)*%
X95661732Y-114953491D02*
X95661732Y-116938491D01*
X95661732Y-84938491D02*
X96621732Y-85898491D01*
%TO.N,/BAT+*%
X99034232Y-114398491D02*
X98034232Y-114398491D01*
X99284232Y-113398491D02*
X98034232Y-113398491D01*
%TO.N,/LED+*%
X91446690Y-103086332D02*
X90534190Y-103998832D01*
%TO.N,/BAT+*%
X130870296Y-114770962D02*
X130497796Y-114398462D01*
X99406732Y-82770991D02*
X99034232Y-82398491D01*
X99034232Y-115398491D02*
X99284232Y-115148491D01*
X99406732Y-82953491D02*
X99406732Y-82770991D01*
%TO.N,/LED+*%
X98446732Y-117898491D02*
X98446732Y-119085991D01*
X129910296Y-85898462D02*
X129910296Y-87085962D01*
%TO.N,/BAT+*%
X90034190Y-97398832D02*
X90034190Y-98398832D01*
X91034190Y-98398832D02*
X91034190Y-97398832D01*
X99406732Y-114953491D02*
X99406732Y-114770991D01*
X99034232Y-82398491D02*
X98034232Y-82398491D01*
X98034232Y-81398491D02*
X97034232Y-81398491D01*
X99034232Y-83398491D02*
X99284232Y-83148491D01*
%TO.N,Net-(SW1-B)*%
X127125296Y-114953462D02*
X127125296Y-116938462D01*
%TD*%
%TA.AperFunction,Conductor*%
%TO.N,/BAT-*%
G36*
X112507892Y-109505100D02*
G01*
X112881873Y-109605308D01*
X112892159Y-109608551D01*
X113250915Y-109739127D01*
X113260887Y-109743258D01*
X113606881Y-109904597D01*
X113616467Y-109909588D01*
X113947071Y-110100462D01*
X113956190Y-110106271D01*
X114268902Y-110325235D01*
X114277484Y-110331820D01*
X114569929Y-110577210D01*
X114577904Y-110584519D01*
X114847825Y-110854440D01*
X114855134Y-110862415D01*
X115100524Y-111154860D01*
X115107109Y-111163442D01*
X115326073Y-111476154D01*
X115331885Y-111485278D01*
X115522754Y-111815873D01*
X115527749Y-111825468D01*
X115689081Y-112171446D01*
X115693221Y-112181440D01*
X115823788Y-112540167D01*
X115827041Y-112550484D01*
X115925846Y-112919229D01*
X115928187Y-112929791D01*
X115994474Y-113305732D01*
X115995886Y-113316456D01*
X116029158Y-113696749D01*
X116029630Y-113707557D01*
X116029630Y-114089306D01*
X116029158Y-114100114D01*
X115995886Y-114480407D01*
X115994474Y-114491131D01*
X115928187Y-114867072D01*
X115925846Y-114877634D01*
X115827041Y-115246379D01*
X115823788Y-115256696D01*
X115693221Y-115615423D01*
X115689081Y-115625417D01*
X115527749Y-115971395D01*
X115522754Y-115980990D01*
X115331885Y-116311585D01*
X115326073Y-116320709D01*
X115107109Y-116633421D01*
X115100524Y-116642003D01*
X114855134Y-116934448D01*
X114847825Y-116942423D01*
X114577904Y-117212344D01*
X114569929Y-117219653D01*
X114277484Y-117465043D01*
X114268902Y-117471628D01*
X113956190Y-117690592D01*
X113947066Y-117696404D01*
X113616471Y-117887273D01*
X113606876Y-117892268D01*
X113260898Y-118053600D01*
X113250904Y-118057740D01*
X112892178Y-118188306D01*
X112881860Y-118191559D01*
X112540506Y-118283024D01*
X112470657Y-118281361D01*
X112412794Y-118242198D01*
X112385290Y-118177970D01*
X112384413Y-118163249D01*
X112384413Y-114315171D01*
X112374486Y-114247040D01*
X112374486Y-114247039D01*
X112323111Y-114141949D01*
X112323109Y-114141947D01*
X112323109Y-114141946D01*
X112261067Y-114079904D01*
X112227582Y-114018581D01*
X112232566Y-113948889D01*
X112274437Y-113892956D01*
X112391103Y-113805618D01*
X112477263Y-113690525D01*
X112477267Y-113690518D01*
X112527509Y-113555811D01*
X112527511Y-113555804D01*
X112533912Y-113496276D01*
X112533913Y-113496259D01*
X112533913Y-111958432D01*
X112514572Y-111950421D01*
X112513491Y-111951012D01*
X112443799Y-111946026D01*
X112399455Y-111917526D01*
X111533913Y-111051984D01*
X110668370Y-111917526D01*
X110607047Y-111951011D01*
X110559959Y-111947643D01*
X110533913Y-111958432D01*
X110533913Y-113496276D01*
X110540314Y-113555804D01*
X110540316Y-113555811D01*
X110590558Y-113690518D01*
X110590562Y-113690525D01*
X110676722Y-113805619D01*
X110793389Y-113892957D01*
X110835259Y-113948891D01*
X110840243Y-114018582D01*
X110806759Y-114079904D01*
X110744715Y-114141948D01*
X110693339Y-114247040D01*
X110683413Y-114315171D01*
X110683413Y-118163249D01*
X110663728Y-118230288D01*
X110610924Y-118276043D01*
X110541766Y-118285987D01*
X110527319Y-118283024D01*
X110185963Y-118191558D01*
X110175647Y-118188305D01*
X109816927Y-118057742D01*
X109806932Y-118053602D01*
X109806928Y-118053600D01*
X109460943Y-117892264D01*
X109451355Y-117887273D01*
X109120749Y-117696398D01*
X109111643Y-117690598D01*
X108798923Y-117471628D01*
X108790341Y-117465043D01*
X108497896Y-117219653D01*
X108489921Y-117212344D01*
X108220000Y-116942423D01*
X108212691Y-116934448D01*
X107967301Y-116642003D01*
X107960716Y-116633421D01*
X107741742Y-116320695D01*
X107735949Y-116311601D01*
X107545065Y-115980977D01*
X107540084Y-115971410D01*
X107378736Y-115625398D01*
X107374608Y-115615432D01*
X107244036Y-115256685D01*
X107240791Y-115246396D01*
X107141977Y-114877621D01*
X107139641Y-114867083D01*
X107073350Y-114491130D01*
X107071939Y-114480406D01*
X107038668Y-114100114D01*
X107038196Y-114089307D01*
X107038196Y-113707556D01*
X107038668Y-113696749D01*
X107039213Y-113690518D01*
X107071939Y-113316453D01*
X107073351Y-113305732D01*
X107139642Y-112929775D01*
X107141976Y-112919246D01*
X107240793Y-112550460D01*
X107244033Y-112540184D01*
X107374611Y-112181423D01*
X107378732Y-112171473D01*
X107540088Y-111825444D01*
X107545059Y-111815895D01*
X107735956Y-111485251D01*
X107741735Y-111476178D01*
X107833671Y-111344880D01*
X110533913Y-111344880D01*
X111180361Y-110698432D01*
X111180361Y-110698431D01*
X111887465Y-110698431D01*
X111887465Y-110698432D01*
X112533912Y-111344880D01*
X112533913Y-111344879D01*
X112533913Y-110051984D01*
X112533912Y-110051983D01*
X111887465Y-110698431D01*
X111180361Y-110698431D01*
X110533913Y-110051983D01*
X110533913Y-111344880D01*
X107833671Y-111344880D01*
X107960725Y-111163429D01*
X107967291Y-111154872D01*
X108212702Y-110862402D01*
X108219989Y-110854451D01*
X108489932Y-110584508D01*
X108497883Y-110577221D01*
X108790353Y-110331810D01*
X108798910Y-110325244D01*
X109111659Y-110106254D01*
X109120732Y-110100475D01*
X109451376Y-109909578D01*
X109460925Y-109904607D01*
X109806954Y-109743251D01*
X109816904Y-109739130D01*
X110175666Y-109608551D01*
X110185942Y-109605311D01*
X110559936Y-109505100D01*
X110674017Y-109484984D01*
X111533912Y-110344879D01*
X112393808Y-109484983D01*
X112507892Y-109505100D01*
G37*
%TD.AperFunction*%
%TD*%
%TA.AperFunction,Conductor*%
%TO.N,/BAT-*%
G36*
X143971456Y-77505071D02*
G01*
X144345437Y-77605279D01*
X144355723Y-77608522D01*
X144714479Y-77739098D01*
X144724451Y-77743229D01*
X145070445Y-77904568D01*
X145080031Y-77909559D01*
X145410635Y-78100433D01*
X145419754Y-78106242D01*
X145732466Y-78325206D01*
X145741048Y-78331791D01*
X146033493Y-78577181D01*
X146041468Y-78584490D01*
X146311389Y-78854411D01*
X146318698Y-78862386D01*
X146564088Y-79154831D01*
X146570673Y-79163413D01*
X146789637Y-79476125D01*
X146795449Y-79485249D01*
X146986318Y-79815844D01*
X146991313Y-79825439D01*
X147152645Y-80171417D01*
X147156785Y-80181411D01*
X147287352Y-80540138D01*
X147290605Y-80550455D01*
X147389410Y-80919200D01*
X147391751Y-80929762D01*
X147458038Y-81305703D01*
X147459450Y-81316427D01*
X147492722Y-81696720D01*
X147493194Y-81707528D01*
X147493194Y-82089277D01*
X147492722Y-82100085D01*
X147459450Y-82480378D01*
X147458038Y-82491102D01*
X147391751Y-82867043D01*
X147389410Y-82877605D01*
X147290605Y-83246350D01*
X147287352Y-83256667D01*
X147156785Y-83615394D01*
X147152645Y-83625388D01*
X146991313Y-83971366D01*
X146986318Y-83980961D01*
X146795449Y-84311556D01*
X146789637Y-84320680D01*
X146570673Y-84633392D01*
X146564088Y-84641974D01*
X146318698Y-84934419D01*
X146311389Y-84942394D01*
X146041468Y-85212315D01*
X146033493Y-85219624D01*
X145741048Y-85465014D01*
X145732466Y-85471599D01*
X145419754Y-85690563D01*
X145410630Y-85696375D01*
X145080035Y-85887244D01*
X145070440Y-85892239D01*
X144724462Y-86053571D01*
X144714468Y-86057711D01*
X144355742Y-86188277D01*
X144345424Y-86191530D01*
X144004070Y-86282995D01*
X143934221Y-86281332D01*
X143876358Y-86242169D01*
X143848854Y-86177941D01*
X143847977Y-86163220D01*
X143847977Y-82315142D01*
X143838050Y-82247011D01*
X143838050Y-82247010D01*
X143786675Y-82141920D01*
X143786673Y-82141918D01*
X143786673Y-82141917D01*
X143724631Y-82079875D01*
X143691146Y-82018552D01*
X143696130Y-81948860D01*
X143738001Y-81892927D01*
X143854667Y-81805589D01*
X143940827Y-81690496D01*
X143940831Y-81690489D01*
X143991073Y-81555782D01*
X143991075Y-81555775D01*
X143997476Y-81496247D01*
X143997477Y-81496230D01*
X143997477Y-79958403D01*
X143978136Y-79950392D01*
X143977055Y-79950983D01*
X143907363Y-79945997D01*
X143863019Y-79917497D01*
X142997477Y-79051955D01*
X142131934Y-79917497D01*
X142070611Y-79950982D01*
X142023523Y-79947614D01*
X141997477Y-79958403D01*
X141997477Y-81496247D01*
X142003878Y-81555775D01*
X142003880Y-81555782D01*
X142054122Y-81690489D01*
X142054126Y-81690496D01*
X142140286Y-81805590D01*
X142256953Y-81892928D01*
X142298823Y-81948862D01*
X142303807Y-82018553D01*
X142270323Y-82079875D01*
X142208279Y-82141919D01*
X142156903Y-82247011D01*
X142146977Y-82315142D01*
X142146977Y-86163220D01*
X142127292Y-86230259D01*
X142074488Y-86276014D01*
X142005330Y-86285958D01*
X141990883Y-86282995D01*
X141649527Y-86191529D01*
X141639211Y-86188276D01*
X141280491Y-86057713D01*
X141270496Y-86053573D01*
X141270492Y-86053571D01*
X140924507Y-85892235D01*
X140914919Y-85887244D01*
X140584313Y-85696369D01*
X140575207Y-85690569D01*
X140262487Y-85471599D01*
X140253905Y-85465014D01*
X139961460Y-85219624D01*
X139953485Y-85212315D01*
X139683564Y-84942394D01*
X139676255Y-84934419D01*
X139430865Y-84641974D01*
X139424280Y-84633392D01*
X139205306Y-84320666D01*
X139199513Y-84311572D01*
X139008629Y-83980948D01*
X139003648Y-83971381D01*
X138842300Y-83625369D01*
X138838172Y-83615403D01*
X138707600Y-83256656D01*
X138704355Y-83246367D01*
X138605541Y-82877592D01*
X138603205Y-82867054D01*
X138536914Y-82491101D01*
X138535503Y-82480377D01*
X138502232Y-82100085D01*
X138501760Y-82089278D01*
X138501760Y-81707527D01*
X138502232Y-81696720D01*
X138502777Y-81690489D01*
X138535503Y-81316424D01*
X138536915Y-81305703D01*
X138603206Y-80929746D01*
X138605540Y-80919217D01*
X138704357Y-80550431D01*
X138707597Y-80540155D01*
X138838175Y-80181394D01*
X138842296Y-80171444D01*
X139003652Y-79825415D01*
X139008623Y-79815866D01*
X139199520Y-79485222D01*
X139205299Y-79476149D01*
X139297235Y-79344851D01*
X141997477Y-79344851D01*
X142643925Y-78698403D01*
X142643925Y-78698402D01*
X143351029Y-78698402D01*
X143351029Y-78698403D01*
X143997476Y-79344851D01*
X143997477Y-79344850D01*
X143997477Y-78051955D01*
X143997476Y-78051954D01*
X143351029Y-78698402D01*
X142643925Y-78698402D01*
X141997477Y-78051954D01*
X141997477Y-79344851D01*
X139297235Y-79344851D01*
X139424289Y-79163400D01*
X139430855Y-79154843D01*
X139676266Y-78862373D01*
X139683553Y-78854422D01*
X139953496Y-78584479D01*
X139961447Y-78577192D01*
X140253917Y-78331781D01*
X140262474Y-78325215D01*
X140575223Y-78106225D01*
X140584296Y-78100446D01*
X140914940Y-77909549D01*
X140924489Y-77904578D01*
X141270518Y-77743222D01*
X141280468Y-77739101D01*
X141639230Y-77608522D01*
X141649506Y-77605282D01*
X142023500Y-77505071D01*
X142137581Y-77484955D01*
X142997476Y-78344850D01*
X143857372Y-77484954D01*
X143971456Y-77505071D01*
G37*
%TD.AperFunction*%
%TD*%
%TA.AperFunction,Conductor*%
%TO.N,/BAT-*%
G36*
X105507850Y-93505441D02*
G01*
X105881831Y-93605649D01*
X105892117Y-93608892D01*
X106250873Y-93739468D01*
X106260845Y-93743599D01*
X106606839Y-93904938D01*
X106616425Y-93909929D01*
X106947029Y-94100803D01*
X106956148Y-94106612D01*
X107268860Y-94325576D01*
X107277442Y-94332161D01*
X107569887Y-94577551D01*
X107577862Y-94584860D01*
X107847783Y-94854781D01*
X107855092Y-94862756D01*
X108100482Y-95155201D01*
X108107067Y-95163783D01*
X108326031Y-95476495D01*
X108331843Y-95485619D01*
X108522712Y-95816214D01*
X108527707Y-95825809D01*
X108689039Y-96171787D01*
X108693179Y-96181781D01*
X108823746Y-96540508D01*
X108826999Y-96550825D01*
X108925804Y-96919570D01*
X108928145Y-96930132D01*
X108994432Y-97306073D01*
X108995844Y-97316797D01*
X109029116Y-97697090D01*
X109029588Y-97707898D01*
X109029588Y-98089647D01*
X109029116Y-98100455D01*
X108995844Y-98480748D01*
X108994432Y-98491472D01*
X108928145Y-98867413D01*
X108925804Y-98877975D01*
X108826999Y-99246720D01*
X108823746Y-99257037D01*
X108693179Y-99615764D01*
X108689039Y-99625758D01*
X108527707Y-99971736D01*
X108522712Y-99981331D01*
X108331843Y-100311926D01*
X108326031Y-100321050D01*
X108107067Y-100633762D01*
X108100482Y-100642344D01*
X107855092Y-100934789D01*
X107847783Y-100942764D01*
X107577862Y-101212685D01*
X107569887Y-101219994D01*
X107277442Y-101465384D01*
X107268860Y-101471969D01*
X106956148Y-101690933D01*
X106947024Y-101696745D01*
X106616429Y-101887614D01*
X106606834Y-101892609D01*
X106260856Y-102053941D01*
X106250862Y-102058081D01*
X105892136Y-102188647D01*
X105881818Y-102191900D01*
X105540464Y-102283365D01*
X105470615Y-102281702D01*
X105412752Y-102242539D01*
X105385248Y-102178311D01*
X105384371Y-102163590D01*
X105384371Y-98315512D01*
X105374444Y-98247381D01*
X105374444Y-98247380D01*
X105323069Y-98142290D01*
X105323067Y-98142288D01*
X105323067Y-98142287D01*
X105261025Y-98080245D01*
X105227540Y-98018922D01*
X105232524Y-97949230D01*
X105274395Y-97893297D01*
X105391061Y-97805959D01*
X105477221Y-97690866D01*
X105477225Y-97690859D01*
X105527467Y-97556152D01*
X105527469Y-97556145D01*
X105533870Y-97496617D01*
X105533871Y-97496600D01*
X105533871Y-95958773D01*
X105514530Y-95950762D01*
X105513449Y-95951353D01*
X105443757Y-95946367D01*
X105399413Y-95917867D01*
X104533871Y-95052325D01*
X103668328Y-95917867D01*
X103607005Y-95951352D01*
X103559917Y-95947984D01*
X103533871Y-95958773D01*
X103533871Y-97496617D01*
X103540272Y-97556145D01*
X103540274Y-97556152D01*
X103590516Y-97690859D01*
X103590520Y-97690866D01*
X103676680Y-97805960D01*
X103793347Y-97893298D01*
X103835217Y-97949232D01*
X103840201Y-98018923D01*
X103806717Y-98080245D01*
X103744673Y-98142289D01*
X103693297Y-98247381D01*
X103683371Y-98315512D01*
X103683371Y-102163590D01*
X103663686Y-102230629D01*
X103610882Y-102276384D01*
X103541724Y-102286328D01*
X103527277Y-102283365D01*
X103185921Y-102191899D01*
X103175605Y-102188646D01*
X102816885Y-102058083D01*
X102806890Y-102053943D01*
X102806886Y-102053941D01*
X102460901Y-101892605D01*
X102451313Y-101887614D01*
X102120707Y-101696739D01*
X102111601Y-101690939D01*
X101798881Y-101471969D01*
X101790299Y-101465384D01*
X101497854Y-101219994D01*
X101489879Y-101212685D01*
X101219958Y-100942764D01*
X101212649Y-100934789D01*
X100967259Y-100642344D01*
X100960674Y-100633762D01*
X100741700Y-100321036D01*
X100735907Y-100311942D01*
X100545023Y-99981318D01*
X100540042Y-99971751D01*
X100378694Y-99625739D01*
X100374566Y-99615773D01*
X100243994Y-99257026D01*
X100240749Y-99246737D01*
X100141935Y-98877962D01*
X100139599Y-98867424D01*
X100073308Y-98491471D01*
X100071897Y-98480747D01*
X100038626Y-98100455D01*
X100038154Y-98089648D01*
X100038154Y-97707897D01*
X100038626Y-97697090D01*
X100039171Y-97690859D01*
X100071897Y-97316794D01*
X100073309Y-97306073D01*
X100139600Y-96930116D01*
X100141934Y-96919587D01*
X100240751Y-96550801D01*
X100243991Y-96540525D01*
X100374569Y-96181764D01*
X100378690Y-96171814D01*
X100540046Y-95825785D01*
X100545017Y-95816236D01*
X100735914Y-95485592D01*
X100741693Y-95476519D01*
X100833629Y-95345221D01*
X103533871Y-95345221D01*
X104180319Y-94698773D01*
X104180319Y-94698772D01*
X104887423Y-94698772D01*
X104887423Y-94698773D01*
X105533870Y-95345221D01*
X105533871Y-95345220D01*
X105533871Y-94052325D01*
X105533870Y-94052324D01*
X104887423Y-94698772D01*
X104180319Y-94698772D01*
X103533871Y-94052324D01*
X103533871Y-95345221D01*
X100833629Y-95345221D01*
X100960683Y-95163770D01*
X100967249Y-95155213D01*
X101212660Y-94862743D01*
X101219947Y-94854792D01*
X101489890Y-94584849D01*
X101497841Y-94577562D01*
X101790311Y-94332151D01*
X101798868Y-94325585D01*
X102111617Y-94106595D01*
X102120690Y-94100816D01*
X102451334Y-93909919D01*
X102460883Y-93904948D01*
X102806912Y-93743592D01*
X102816862Y-93739471D01*
X103175624Y-93608892D01*
X103185900Y-93605652D01*
X103559894Y-93505441D01*
X103673975Y-93485325D01*
X104533870Y-94345220D01*
X105393766Y-93485324D01*
X105507850Y-93505441D01*
G37*
%TD.AperFunction*%
%TD*%
%TA.AperFunction,Conductor*%
%TO.N,/BAT-*%
G36*
X112507892Y-77505100D02*
G01*
X112881873Y-77605308D01*
X112892159Y-77608551D01*
X113250915Y-77739127D01*
X113260887Y-77743258D01*
X113606881Y-77904597D01*
X113616467Y-77909588D01*
X113947071Y-78100462D01*
X113956190Y-78106271D01*
X114268902Y-78325235D01*
X114277484Y-78331820D01*
X114569929Y-78577210D01*
X114577904Y-78584519D01*
X114847825Y-78854440D01*
X114855134Y-78862415D01*
X115100524Y-79154860D01*
X115107109Y-79163442D01*
X115326073Y-79476154D01*
X115331885Y-79485278D01*
X115522754Y-79815873D01*
X115527749Y-79825468D01*
X115689081Y-80171446D01*
X115693221Y-80181440D01*
X115823788Y-80540167D01*
X115827041Y-80550484D01*
X115925846Y-80919229D01*
X115928187Y-80929791D01*
X115994474Y-81305732D01*
X115995886Y-81316456D01*
X116029158Y-81696749D01*
X116029630Y-81707557D01*
X116029630Y-82089306D01*
X116029158Y-82100114D01*
X115995886Y-82480407D01*
X115994474Y-82491131D01*
X115928187Y-82867072D01*
X115925846Y-82877634D01*
X115827041Y-83246379D01*
X115823788Y-83256696D01*
X115693221Y-83615423D01*
X115689081Y-83625417D01*
X115527749Y-83971395D01*
X115522754Y-83980990D01*
X115331885Y-84311585D01*
X115326073Y-84320709D01*
X115107109Y-84633421D01*
X115100524Y-84642003D01*
X114855134Y-84934448D01*
X114847825Y-84942423D01*
X114577904Y-85212344D01*
X114569929Y-85219653D01*
X114277484Y-85465043D01*
X114268902Y-85471628D01*
X113956190Y-85690592D01*
X113947066Y-85696404D01*
X113616471Y-85887273D01*
X113606876Y-85892268D01*
X113260898Y-86053600D01*
X113250904Y-86057740D01*
X112892178Y-86188306D01*
X112881860Y-86191559D01*
X112540506Y-86283024D01*
X112470657Y-86281361D01*
X112412794Y-86242198D01*
X112385290Y-86177970D01*
X112384413Y-86163249D01*
X112384413Y-82315171D01*
X112374486Y-82247040D01*
X112374486Y-82247039D01*
X112323111Y-82141949D01*
X112323109Y-82141947D01*
X112323109Y-82141946D01*
X112261067Y-82079904D01*
X112227582Y-82018581D01*
X112232566Y-81948889D01*
X112274437Y-81892956D01*
X112391103Y-81805618D01*
X112477263Y-81690525D01*
X112477267Y-81690518D01*
X112527509Y-81555811D01*
X112527511Y-81555804D01*
X112533912Y-81496276D01*
X112533913Y-81496259D01*
X112533913Y-79958432D01*
X112514572Y-79950421D01*
X112513491Y-79951012D01*
X112443799Y-79946026D01*
X112399455Y-79917526D01*
X111533913Y-79051984D01*
X110668370Y-79917526D01*
X110607047Y-79951011D01*
X110559959Y-79947643D01*
X110533913Y-79958432D01*
X110533913Y-81496276D01*
X110540314Y-81555804D01*
X110540316Y-81555811D01*
X110590558Y-81690518D01*
X110590562Y-81690525D01*
X110676722Y-81805619D01*
X110793389Y-81892957D01*
X110835259Y-81948891D01*
X110840243Y-82018582D01*
X110806759Y-82079904D01*
X110744715Y-82141948D01*
X110693339Y-82247040D01*
X110683413Y-82315171D01*
X110683413Y-86163249D01*
X110663728Y-86230288D01*
X110610924Y-86276043D01*
X110541766Y-86285987D01*
X110527319Y-86283024D01*
X110185963Y-86191558D01*
X110175647Y-86188305D01*
X109816927Y-86057742D01*
X109806932Y-86053602D01*
X109806928Y-86053600D01*
X109460943Y-85892264D01*
X109451355Y-85887273D01*
X109120749Y-85696398D01*
X109111643Y-85690598D01*
X108798923Y-85471628D01*
X108790341Y-85465043D01*
X108497896Y-85219653D01*
X108489921Y-85212344D01*
X108220000Y-84942423D01*
X108212691Y-84934448D01*
X107967301Y-84642003D01*
X107960716Y-84633421D01*
X107741742Y-84320695D01*
X107735949Y-84311601D01*
X107545065Y-83980977D01*
X107540084Y-83971410D01*
X107378736Y-83625398D01*
X107374608Y-83615432D01*
X107244036Y-83256685D01*
X107240791Y-83246396D01*
X107141977Y-82877621D01*
X107139641Y-82867083D01*
X107073350Y-82491130D01*
X107071939Y-82480406D01*
X107038668Y-82100114D01*
X107038196Y-82089307D01*
X107038196Y-81707556D01*
X107038668Y-81696749D01*
X107039213Y-81690518D01*
X107071939Y-81316453D01*
X107073351Y-81305732D01*
X107139642Y-80929775D01*
X107141976Y-80919246D01*
X107240793Y-80550460D01*
X107244033Y-80540184D01*
X107374611Y-80181423D01*
X107378732Y-80171473D01*
X107540088Y-79825444D01*
X107545059Y-79815895D01*
X107735956Y-79485251D01*
X107741735Y-79476178D01*
X107833671Y-79344880D01*
X110533913Y-79344880D01*
X111180361Y-78698432D01*
X111180361Y-78698431D01*
X111887465Y-78698431D01*
X111887465Y-78698432D01*
X112533912Y-79344880D01*
X112533913Y-79344879D01*
X112533913Y-78051984D01*
X112533912Y-78051983D01*
X111887465Y-78698431D01*
X111180361Y-78698431D01*
X110533913Y-78051983D01*
X110533913Y-79344880D01*
X107833671Y-79344880D01*
X107960725Y-79163429D01*
X107967291Y-79154872D01*
X108212702Y-78862402D01*
X108219989Y-78854451D01*
X108489932Y-78584508D01*
X108497883Y-78577221D01*
X108790353Y-78331810D01*
X108798910Y-78325244D01*
X109111659Y-78106254D01*
X109120732Y-78100475D01*
X109451376Y-77909578D01*
X109460925Y-77904607D01*
X109806954Y-77743251D01*
X109816904Y-77739130D01*
X110175666Y-77608551D01*
X110185942Y-77605311D01*
X110559936Y-77505100D01*
X110674017Y-77484984D01*
X111533912Y-78344879D01*
X112393808Y-77484983D01*
X112507892Y-77505100D01*
G37*
%TD.AperFunction*%
%TD*%
%TA.AperFunction,Conductor*%
%TO.N,/BAT-*%
G36*
X143971456Y-109505071D02*
G01*
X144345437Y-109605279D01*
X144355723Y-109608522D01*
X144714479Y-109739098D01*
X144724451Y-109743229D01*
X145070445Y-109904568D01*
X145080031Y-109909559D01*
X145410635Y-110100433D01*
X145419754Y-110106242D01*
X145732466Y-110325206D01*
X145741048Y-110331791D01*
X146033493Y-110577181D01*
X146041468Y-110584490D01*
X146311389Y-110854411D01*
X146318698Y-110862386D01*
X146564088Y-111154831D01*
X146570673Y-111163413D01*
X146789637Y-111476125D01*
X146795449Y-111485249D01*
X146986318Y-111815844D01*
X146991313Y-111825439D01*
X147152645Y-112171417D01*
X147156785Y-112181411D01*
X147287352Y-112540138D01*
X147290605Y-112550455D01*
X147389410Y-112919200D01*
X147391751Y-112929762D01*
X147458038Y-113305703D01*
X147459450Y-113316427D01*
X147492722Y-113696720D01*
X147493194Y-113707528D01*
X147493194Y-114089277D01*
X147492722Y-114100085D01*
X147459450Y-114480378D01*
X147458038Y-114491102D01*
X147391751Y-114867043D01*
X147389410Y-114877605D01*
X147290605Y-115246350D01*
X147287352Y-115256667D01*
X147156785Y-115615394D01*
X147152645Y-115625388D01*
X146991313Y-115971366D01*
X146986318Y-115980961D01*
X146795449Y-116311556D01*
X146789637Y-116320680D01*
X146570673Y-116633392D01*
X146564088Y-116641974D01*
X146318698Y-116934419D01*
X146311389Y-116942394D01*
X146041468Y-117212315D01*
X146033493Y-117219624D01*
X145741048Y-117465014D01*
X145732466Y-117471599D01*
X145419754Y-117690563D01*
X145410630Y-117696375D01*
X145080035Y-117887244D01*
X145070440Y-117892239D01*
X144724462Y-118053571D01*
X144714468Y-118057711D01*
X144355742Y-118188277D01*
X144345424Y-118191530D01*
X144004070Y-118282995D01*
X143934221Y-118281332D01*
X143876358Y-118242169D01*
X143848854Y-118177941D01*
X143847977Y-118163220D01*
X143847977Y-114315142D01*
X143838050Y-114247011D01*
X143838050Y-114247010D01*
X143786675Y-114141920D01*
X143786673Y-114141918D01*
X143786673Y-114141917D01*
X143724631Y-114079875D01*
X143691146Y-114018552D01*
X143696130Y-113948860D01*
X143738001Y-113892927D01*
X143854667Y-113805589D01*
X143940827Y-113690496D01*
X143940831Y-113690489D01*
X143991073Y-113555782D01*
X143991075Y-113555775D01*
X143997476Y-113496247D01*
X143997477Y-113496230D01*
X143997477Y-111958403D01*
X143978136Y-111950392D01*
X143977055Y-111950983D01*
X143907363Y-111945997D01*
X143863019Y-111917497D01*
X142997477Y-111051955D01*
X142131934Y-111917497D01*
X142070611Y-111950982D01*
X142023523Y-111947614D01*
X141997477Y-111958403D01*
X141997477Y-113496247D01*
X142003878Y-113555775D01*
X142003880Y-113555782D01*
X142054122Y-113690489D01*
X142054126Y-113690496D01*
X142140286Y-113805590D01*
X142256953Y-113892928D01*
X142298823Y-113948862D01*
X142303807Y-114018553D01*
X142270323Y-114079875D01*
X142208279Y-114141919D01*
X142156903Y-114247011D01*
X142146977Y-114315142D01*
X142146977Y-118163220D01*
X142127292Y-118230259D01*
X142074488Y-118276014D01*
X142005330Y-118285958D01*
X141990883Y-118282995D01*
X141649527Y-118191529D01*
X141639211Y-118188276D01*
X141280491Y-118057713D01*
X141270496Y-118053573D01*
X141270492Y-118053571D01*
X140924507Y-117892235D01*
X140914919Y-117887244D01*
X140584313Y-117696369D01*
X140575207Y-117690569D01*
X140262487Y-117471599D01*
X140253905Y-117465014D01*
X139961460Y-117219624D01*
X139953485Y-117212315D01*
X139683564Y-116942394D01*
X139676255Y-116934419D01*
X139430865Y-116641974D01*
X139424280Y-116633392D01*
X139205306Y-116320666D01*
X139199513Y-116311572D01*
X139008629Y-115980948D01*
X139003648Y-115971381D01*
X138842300Y-115625369D01*
X138838172Y-115615403D01*
X138707600Y-115256656D01*
X138704355Y-115246367D01*
X138605541Y-114877592D01*
X138603205Y-114867054D01*
X138536914Y-114491101D01*
X138535503Y-114480377D01*
X138502232Y-114100085D01*
X138501760Y-114089278D01*
X138501760Y-113707527D01*
X138502232Y-113696720D01*
X138502777Y-113690489D01*
X138535503Y-113316424D01*
X138536915Y-113305703D01*
X138603206Y-112929746D01*
X138605540Y-112919217D01*
X138704357Y-112550431D01*
X138707597Y-112540155D01*
X138838175Y-112181394D01*
X138842296Y-112171444D01*
X139003652Y-111825415D01*
X139008623Y-111815866D01*
X139199520Y-111485222D01*
X139205299Y-111476149D01*
X139297235Y-111344851D01*
X141997477Y-111344851D01*
X142643925Y-110698403D01*
X142643925Y-110698402D01*
X143351029Y-110698402D01*
X143351029Y-110698403D01*
X143997476Y-111344851D01*
X143997477Y-111344850D01*
X143997477Y-110051955D01*
X143997476Y-110051954D01*
X143351029Y-110698402D01*
X142643925Y-110698402D01*
X141997477Y-110051954D01*
X141997477Y-111344851D01*
X139297235Y-111344851D01*
X139424289Y-111163400D01*
X139430855Y-111154843D01*
X139676266Y-110862373D01*
X139683553Y-110854422D01*
X139953496Y-110584479D01*
X139961447Y-110577192D01*
X140253917Y-110331781D01*
X140262474Y-110325215D01*
X140575223Y-110106225D01*
X140584296Y-110100446D01*
X140914940Y-109909549D01*
X140924489Y-109904578D01*
X141270518Y-109743222D01*
X141280468Y-109739101D01*
X141639230Y-109608522D01*
X141649506Y-109605282D01*
X142023500Y-109505071D01*
X142137581Y-109484955D01*
X142997476Y-110344850D01*
X143857372Y-109484954D01*
X143971456Y-109505071D01*
G37*
%TD.AperFunction*%
%TD*%
%TA.AperFunction,Conductor*%
%TO.N,/BAT-*%
G36*
X136971414Y-93505412D02*
G01*
X137345395Y-93605620D01*
X137355681Y-93608863D01*
X137714437Y-93739439D01*
X137724409Y-93743570D01*
X138070403Y-93904909D01*
X138079989Y-93909900D01*
X138410593Y-94100774D01*
X138419712Y-94106583D01*
X138732424Y-94325547D01*
X138741006Y-94332132D01*
X139033451Y-94577522D01*
X139041426Y-94584831D01*
X139311347Y-94854752D01*
X139318656Y-94862727D01*
X139564046Y-95155172D01*
X139570631Y-95163754D01*
X139789595Y-95476466D01*
X139795407Y-95485590D01*
X139986276Y-95816185D01*
X139991271Y-95825780D01*
X140152603Y-96171758D01*
X140156743Y-96181752D01*
X140287310Y-96540479D01*
X140290563Y-96550796D01*
X140389368Y-96919541D01*
X140391709Y-96930103D01*
X140457996Y-97306044D01*
X140459408Y-97316768D01*
X140492680Y-97697061D01*
X140493152Y-97707869D01*
X140493152Y-98089618D01*
X140492680Y-98100426D01*
X140459408Y-98480719D01*
X140457996Y-98491443D01*
X140391709Y-98867384D01*
X140389368Y-98877946D01*
X140290563Y-99246691D01*
X140287310Y-99257008D01*
X140156743Y-99615735D01*
X140152603Y-99625729D01*
X139991271Y-99971707D01*
X139986276Y-99981302D01*
X139795407Y-100311897D01*
X139789595Y-100321021D01*
X139570631Y-100633733D01*
X139564046Y-100642315D01*
X139318656Y-100934760D01*
X139311347Y-100942735D01*
X139041426Y-101212656D01*
X139033451Y-101219965D01*
X138741006Y-101465355D01*
X138732424Y-101471940D01*
X138419712Y-101690904D01*
X138410588Y-101696716D01*
X138079993Y-101887585D01*
X138070398Y-101892580D01*
X137724420Y-102053912D01*
X137714426Y-102058052D01*
X137355700Y-102188618D01*
X137345382Y-102191871D01*
X137004028Y-102283336D01*
X136934179Y-102281673D01*
X136876316Y-102242510D01*
X136848812Y-102178282D01*
X136847935Y-102163561D01*
X136847935Y-98315483D01*
X136838008Y-98247352D01*
X136838008Y-98247351D01*
X136786633Y-98142261D01*
X136786631Y-98142259D01*
X136786631Y-98142258D01*
X136724589Y-98080216D01*
X136691104Y-98018893D01*
X136696088Y-97949201D01*
X136737959Y-97893268D01*
X136854625Y-97805930D01*
X136940785Y-97690837D01*
X136940789Y-97690830D01*
X136991031Y-97556123D01*
X136991033Y-97556116D01*
X136997434Y-97496588D01*
X136997435Y-97496571D01*
X136997435Y-95958744D01*
X136978094Y-95950733D01*
X136977013Y-95951324D01*
X136907321Y-95946338D01*
X136862977Y-95917838D01*
X135997435Y-95052296D01*
X135131892Y-95917838D01*
X135070569Y-95951323D01*
X135023481Y-95947955D01*
X134997435Y-95958744D01*
X134997435Y-97496588D01*
X135003836Y-97556116D01*
X135003838Y-97556123D01*
X135054080Y-97690830D01*
X135054084Y-97690837D01*
X135140244Y-97805931D01*
X135256911Y-97893269D01*
X135298781Y-97949203D01*
X135303765Y-98018894D01*
X135270281Y-98080216D01*
X135208237Y-98142260D01*
X135156861Y-98247352D01*
X135146935Y-98315483D01*
X135146935Y-102163561D01*
X135127250Y-102230600D01*
X135074446Y-102276355D01*
X135005288Y-102286299D01*
X134990841Y-102283336D01*
X134649485Y-102191870D01*
X134639169Y-102188617D01*
X134280449Y-102058054D01*
X134270454Y-102053914D01*
X134270450Y-102053912D01*
X133924465Y-101892576D01*
X133914877Y-101887585D01*
X133584271Y-101696710D01*
X133575165Y-101690910D01*
X133262445Y-101471940D01*
X133253863Y-101465355D01*
X132961418Y-101219965D01*
X132953443Y-101212656D01*
X132683522Y-100942735D01*
X132676213Y-100934760D01*
X132430823Y-100642315D01*
X132424238Y-100633733D01*
X132205264Y-100321007D01*
X132199471Y-100311913D01*
X132008587Y-99981289D01*
X132003606Y-99971722D01*
X131842258Y-99625710D01*
X131838130Y-99615744D01*
X131707558Y-99256997D01*
X131704313Y-99246708D01*
X131605499Y-98877933D01*
X131603163Y-98867395D01*
X131536872Y-98491442D01*
X131535461Y-98480718D01*
X131502190Y-98100426D01*
X131501718Y-98089619D01*
X131501718Y-97707868D01*
X131502190Y-97697061D01*
X131502735Y-97690830D01*
X131535461Y-97316765D01*
X131536873Y-97306044D01*
X131603164Y-96930087D01*
X131605498Y-96919558D01*
X131704315Y-96550772D01*
X131707555Y-96540496D01*
X131838133Y-96181735D01*
X131842254Y-96171785D01*
X132003610Y-95825756D01*
X132008581Y-95816207D01*
X132199478Y-95485563D01*
X132205257Y-95476490D01*
X132297193Y-95345192D01*
X134997435Y-95345192D01*
X135643883Y-94698744D01*
X135643883Y-94698743D01*
X136350987Y-94698743D01*
X136350987Y-94698744D01*
X136997434Y-95345192D01*
X136997435Y-95345191D01*
X136997435Y-94052296D01*
X136997434Y-94052295D01*
X136350987Y-94698743D01*
X135643883Y-94698743D01*
X134997435Y-94052295D01*
X134997435Y-95345192D01*
X132297193Y-95345192D01*
X132424247Y-95163741D01*
X132430813Y-95155184D01*
X132676224Y-94862714D01*
X132683511Y-94854763D01*
X132953454Y-94584820D01*
X132961405Y-94577533D01*
X133253875Y-94332122D01*
X133262432Y-94325556D01*
X133575181Y-94106566D01*
X133584254Y-94100787D01*
X133914898Y-93909890D01*
X133924447Y-93904919D01*
X134270476Y-93743563D01*
X134280426Y-93739442D01*
X134639188Y-93608863D01*
X134649464Y-93605623D01*
X135023458Y-93505412D01*
X135137539Y-93485296D01*
X135997434Y-94345191D01*
X136857330Y-93485295D01*
X136971414Y-93505412D01*
G37*
%TD.AperFunction*%
%TD*%
M02*
