M48
; DRILL file {KiCad 9.0.2} date 2025-08-05T00:52:20+0100
; FORMAT={-:-/ absolute / metric / decimal}
; #@! TF.CreationDate,2025-08-05T00:52:20+01:00
; #@! TF.GenerationSoftware,Kicad,Pcbnew,9.0.2
; #@! TF.FileFunction,Plated,1,2,PTH
FMAT,2
METRIC
; #@! TA.AperFunction,Plated,PTH,ViaDrill
T1C0.350
; #@! TA.AperFunction,Plated,PTH,ViaDrill
T2C1.200
%
G90
G05
T1
X90.034Y-97.399
X90.034Y-98.399
X91.034Y-97.399
X91.034Y-98.399
X97.034Y-81.398
X97.034Y-82.398
X97.034Y-113.398
X97.034Y-114.398
X98.034Y-81.398
X98.034Y-82.398
X98.034Y-113.398
X98.034Y-114.398
X101.034Y-97.899
X108.034Y-97.899
X108.034Y-81.898
X108.034Y-113.898
X115.034Y-81.898
X115.034Y-113.898
X121.498Y-97.399
X121.498Y-98.399
X122.498Y-97.399
X122.498Y-98.399
X128.498Y-81.398
X128.498Y-82.398
X128.498Y-113.398
X128.498Y-114.398
X129.498Y-81.398
X129.498Y-82.398
X129.498Y-113.398
X129.498Y-114.398
X132.497Y-97.899
X139.497Y-97.899
X139.497Y-81.898
X139.497Y-113.898
X146.497Y-81.898
X146.497Y-113.898
T2
X90.534Y-104.326
X97.534Y-88.325
X97.534Y-120.325
X104.534Y-91.899
X104.534Y-104.423
X111.534Y-75.898
X111.534Y-88.422
X111.534Y-107.898
X111.534Y-120.422
X121.998Y-104.326
X128.998Y-88.325
X128.998Y-120.325
X135.997Y-91.899
X135.997Y-104.423
X142.997Y-75.898
X142.997Y-88.422
X142.997Y-107.898
X142.997Y-120.422
M30
