%TF.GenerationSoftware,KiCad,Pcbnew,9.0.2*%
%TF.CreationDate,2025-08-05T01:23:02+01:00*%
%TF.ProjectId,led_jewellery,6c65645f-6a65-4776-956c-6c6572792e6b,rev?*%
%TF.SameCoordinates,Original*%
%TF.FileFunction,Soldermask,Bot*%
%TF.FilePolarity,Negative*%
%FSLAX46Y46*%
G04 Gerber Fmt 4.6, Leading zero omitted, Abs format (unit mm)*
G04 Created by KiCad (PCBNEW 9.0.2) date 2025-08-05 01:23:02*
%MOMM*%
%LPD*%
G01*
G04 APERTURE LIST*
%ADD10C,0.500000*%
%ADD11C,9.000000*%
%ADD12C,2.000000*%
G04 APERTURE END LIST*
D10*
%TO.C,REF\u002A\u002A*%
X125907568Y-76755458D03*
X126557375Y-76417190D03*
X125303828Y-77170397D03*
X127243565Y-76160634D03*
X124755157Y-77655821D03*
%TD*%
%TO.C,REF\u002A\u002A*%
X100624461Y-76755488D03*
X101228200Y-77170426D03*
X99974653Y-76417219D03*
X101776872Y-77655850D03*
X99288463Y-76160664D03*
%TD*%
%TO.C,REF\u002A\u002A*%
X146088025Y-76755459D03*
X146691764Y-77170397D03*
X145438217Y-76417190D03*
X147240436Y-77655821D03*
X144752027Y-76160635D03*
%TD*%
%TO.C,REF\u002A\u002A*%
X132907188Y-92755761D03*
X133556995Y-92417493D03*
X132303448Y-93170700D03*
X134243185Y-92160937D03*
X131754777Y-93656124D03*
%TD*%
%TO.C,REF\u002A\u002A*%
X107624419Y-92755829D03*
X108228158Y-93170767D03*
X106974611Y-92417560D03*
X108776830Y-93656191D03*
X106288421Y-92161005D03*
%TD*%
%TO.C,REF\u002A\u002A*%
X139907230Y-108755420D03*
X140557037Y-108417152D03*
X139303490Y-109170359D03*
X141243227Y-108160596D03*
X138754819Y-109655783D03*
%TD*%
%TO.C,REF\u002A\u002A*%
X114624461Y-76755488D03*
X115228200Y-77170426D03*
X113974653Y-76417219D03*
X115776872Y-77655850D03*
X113288463Y-76160664D03*
%TD*%
%TO.C,REF\u002A\u002A*%
X125087983Y-92755800D03*
X125691722Y-93170738D03*
X124438175Y-92417531D03*
X126240394Y-93656162D03*
X123751985Y-92160976D03*
%TD*%
%TO.C,REF\u002A\u002A*%
X94444004Y-76755487D03*
X95093811Y-76417219D03*
X93840264Y-77170426D03*
X95780001Y-76160663D03*
X93291593Y-77655850D03*
%TD*%
%TO.C,REF\u002A\u002A*%
X132088025Y-108755459D03*
X132691764Y-109170397D03*
X131438217Y-108417190D03*
X133240436Y-109655821D03*
X130752027Y-108160635D03*
%TD*%
%TO.C,REF\u002A\u002A*%
X100624461Y-108755488D03*
X101228200Y-109170426D03*
X99974653Y-108417219D03*
X101776872Y-109655850D03*
X99288463Y-108160664D03*
%TD*%
%TO.C,REF\u002A\u002A*%
X125907568Y-108755458D03*
X126557375Y-108417190D03*
X125303828Y-109170397D03*
X127243565Y-108160634D03*
X124755157Y-109655821D03*
%TD*%
%TO.C,REF\u002A\u002A*%
X139087983Y-92755800D03*
X139691722Y-93170738D03*
X138438175Y-92417531D03*
X140240394Y-93656162D03*
X137751985Y-92160976D03*
%TD*%
%TO.C,REF\u002A\u002A*%
X94444004Y-108755487D03*
X95093811Y-108417219D03*
X93840264Y-109170426D03*
X95780001Y-108160663D03*
X93291593Y-109655850D03*
%TD*%
%TO.C,REF\u002A\u002A*%
X101443624Y-92755790D03*
X102093431Y-92417522D03*
X100839884Y-93170729D03*
X102779621Y-92160966D03*
X100291213Y-93656153D03*
%TD*%
%TO.C,REF\u002A\u002A*%
X118907526Y-92755799D03*
X119557333Y-92417531D03*
X118303786Y-93170738D03*
X120243523Y-92160975D03*
X117755115Y-93656162D03*
%TD*%
%TO.C,REF\u002A\u002A*%
X108443666Y-108755449D03*
X109093473Y-108417181D03*
X107839926Y-109170388D03*
X109779663Y-108160625D03*
X107291255Y-109655812D03*
%TD*%
%TO.C,REF\u002A\u002A*%
X132088025Y-76755459D03*
X132691764Y-77170397D03*
X131438217Y-76417190D03*
X133240436Y-77655821D03*
X130752027Y-76160635D03*
%TD*%
%TO.C,REF\u002A\u002A*%
X87443962Y-92755828D03*
X88093769Y-92417560D03*
X86840222Y-93170767D03*
X88779959Y-92161004D03*
X86291551Y-93656191D03*
%TD*%
%TO.C,REF\u002A\u002A*%
X108443666Y-76755449D03*
X109093473Y-76417181D03*
X107839926Y-77170388D03*
X109779663Y-76160625D03*
X107291255Y-77655812D03*
%TD*%
%TO.C,REF\u002A\u002A*%
X114624461Y-108755488D03*
X115228200Y-109170426D03*
X113974653Y-108417219D03*
X115776872Y-109655850D03*
X113288463Y-108160664D03*
%TD*%
%TO.C,REF\u002A\u002A*%
X139907230Y-76755420D03*
X140557037Y-76417152D03*
X139303490Y-77170359D03*
X141243227Y-76160596D03*
X138754819Y-77655783D03*
%TD*%
%TO.C,REF\u002A\u002A*%
X146088025Y-108755459D03*
X146691764Y-109170397D03*
X145438217Y-108417190D03*
X147240436Y-109655821D03*
X144752027Y-108160635D03*
%TD*%
%TO.C,REF\u002A\u002A*%
X93624419Y-92755829D03*
X94228158Y-93170767D03*
X92974611Y-92417560D03*
X94776830Y-93656191D03*
X92288421Y-92161005D03*
%TD*%
D11*
%TO.C,J2*%
X128997796Y-113898462D03*
%TD*%
%TO.C,J2*%
X121997754Y-97898803D03*
%TD*%
%TO.C,J1*%
X111533913Y-81898432D03*
%TD*%
%TO.C,J1*%
X142997477Y-113898403D03*
%TD*%
%TO.C,J2*%
X90534190Y-97898832D03*
%TD*%
%TO.C,J1*%
X135997435Y-97898744D03*
%TD*%
%TO.C,J2*%
X97534232Y-81898491D03*
%TD*%
%TO.C,J2*%
X97534232Y-113898491D03*
%TD*%
%TO.C,J1*%
X111533913Y-113898432D03*
%TD*%
%TO.C,J2*%
X128997796Y-81898462D03*
%TD*%
%TO.C,J1*%
X104533871Y-97898773D03*
%TD*%
%TO.C,J1*%
X142997477Y-81898403D03*
%TD*%
D12*
X142997478Y-88422403D03*
X90534190Y-104325832D03*
X111533914Y-120422432D03*
X128997796Y-88325462D03*
X111533914Y-88422432D03*
X135997436Y-104422744D03*
X104533872Y-104422773D03*
X97534232Y-88325491D03*
X97534232Y-120325491D03*
X128997796Y-120325462D03*
X121997754Y-104325803D03*
X142997478Y-120422403D03*
X142997478Y-107898403D03*
X111533914Y-107898432D03*
X111533914Y-75898432D03*
X135997436Y-91898744D03*
X104533872Y-91898773D03*
X142997478Y-75898403D03*
M02*
